G04 #@! TF.GenerationSoftware,KiCad,Pcbnew,9.0.3-rc1*
G04 #@! TF.CreationDate,2025-10-23T15:45:58+02:00*
G04 #@! TF.ProjectId,Nerd8,4e657264-382e-46b6-9963-61645f706362,rev?*
G04 #@! TF.SameCoordinates,Original*
G04 #@! TF.FileFunction,Paste,Top*
G04 #@! TF.FilePolarity,Positive*
%FSLAX46Y46*%
G04 Gerber Fmt 4.6, Leading zero omitted, Abs format (unit mm)*
G04 Created by KiCad (PCBNEW 9.0.3-rc1) date 2025-10-23 15:45:58*
%MOMM*%
%LPD*%
G01*
G04 APERTURE LIST*
G04 Aperture macros list*
%AMRoundRect*
0 Rectangle with rounded corners*
0 $1 Rounding radius*
0 $2 $3 $4 $5 $6 $7 $8 $9 X,Y pos of 4 corners*
0 Add a 4 corners polygon primitive as box body*
4,1,4,$2,$3,$4,$5,$6,$7,$8,$9,$2,$3,0*
0 Add four circle primitives for the rounded corners*
1,1,$1+$1,$2,$3*
1,1,$1+$1,$4,$5*
1,1,$1+$1,$6,$7*
1,1,$1+$1,$8,$9*
0 Add four rect primitives between the rounded corners*
20,1,$1+$1,$2,$3,$4,$5,0*
20,1,$1+$1,$4,$5,$6,$7,0*
20,1,$1+$1,$6,$7,$8,$9,0*
20,1,$1+$1,$8,$9,$2,$3,0*%
%AMFreePoly0*
4,1,19,0.178553,0.213392,0.221317,0.164040,0.231790,0.115895,0.231790,-0.012362,0.213392,-0.075020,0.197845,-0.094312,0.094312,-0.197845,0.036997,-0.229141,0.012362,-0.231790,-0.115895,-0.231790,-0.178553,-0.213392,-0.221317,-0.164040,-0.231790,-0.115895,-0.231790,0.115895,-0.213392,0.178553,-0.164040,0.221317,-0.115895,0.231790,0.115895,0.231790,0.178553,0.213392,0.178553,0.213392,
$1*%
%AMFreePoly1*
4,1,21,0.122595,0.381565,0.128518,0.376137,0.204814,0.299841,0.231439,0.242746,0.231789,0.234719,0.231789,-0.234719,0.210242,-0.293918,0.204814,-0.299841,0.128518,-0.376137,0.071423,-0.402762,0.063396,-0.403112,-0.139692,-0.403112,-0.198891,-0.381565,-0.230390,-0.327007,-0.231789,-0.311015,-0.231789,0.311015,-0.210242,0.370214,-0.155684,0.401713,-0.139692,0.403112,0.063396,0.403112,
0.122595,0.381565,0.122595,0.381565,$1*%
%AMFreePoly2*
4,1,19,0.075020,0.213392,0.094312,0.197845,0.197845,0.094312,0.229141,0.036997,0.231790,0.012362,0.231790,-0.115895,0.213392,-0.178553,0.164040,-0.221317,0.115895,-0.231790,-0.115895,-0.231790,-0.178553,-0.213392,-0.221317,-0.164040,-0.231790,-0.115895,-0.231790,0.115895,-0.213392,0.178553,-0.164040,0.221317,-0.115895,0.231790,0.012362,0.231790,0.075020,0.213392,0.075020,0.213392,
$1*%
%AMFreePoly3*
4,1,21,0.370214,0.210242,0.401713,0.155684,0.403112,0.139692,0.403112,-0.063396,0.381565,-0.122595,0.376137,-0.128518,0.299841,-0.204814,0.242746,-0.231439,0.234719,-0.231789,-0.234719,-0.231789,-0.293918,-0.210242,-0.299841,-0.204814,-0.376137,-0.128518,-0.402762,-0.071423,-0.403112,-0.063396,-0.403112,0.139692,-0.381565,0.198891,-0.327007,0.230390,-0.311015,0.231789,0.311015,0.231789,
0.370214,0.210242,0.370214,0.210242,$1*%
%AMFreePoly4*
4,1,21,0.293918,0.210242,0.299841,0.204814,0.376137,0.128518,0.402762,0.071423,0.403112,0.063396,0.403112,-0.139692,0.381565,-0.198891,0.327007,-0.230390,0.311015,-0.231789,-0.311015,-0.231789,-0.370214,-0.210242,-0.401713,-0.155684,-0.403112,-0.139692,-0.403112,0.063396,-0.381565,0.122595,-0.376137,0.128518,-0.299841,0.204814,-0.242746,0.231439,-0.234719,0.231789,0.234719,0.231789,
0.293918,0.210242,0.293918,0.210242,$1*%
%AMFreePoly5*
4,1,19,0.178553,0.213392,0.221317,0.164040,0.231790,0.115895,0.231790,-0.115895,0.213392,-0.178553,0.164040,-0.221317,0.115895,-0.231790,-0.012362,-0.231790,-0.075020,-0.213392,-0.094312,-0.197845,-0.197845,-0.094312,-0.229141,-0.036997,-0.231790,-0.012362,-0.231790,0.115895,-0.213392,0.178553,-0.164040,0.221317,-0.115895,0.231790,0.115895,0.231790,0.178553,0.213392,0.178553,0.213392,
$1*%
%AMFreePoly6*
4,1,21,0.198891,0.381565,0.230390,0.327007,0.231789,0.311015,0.231789,-0.311015,0.210242,-0.370214,0.155684,-0.401713,0.139692,-0.403112,-0.063396,-0.403112,-0.122595,-0.381565,-0.128518,-0.376137,-0.204814,-0.299841,-0.231439,-0.242746,-0.231789,-0.234719,-0.231789,0.234719,-0.210242,0.293918,-0.204814,0.299841,-0.128518,0.376137,-0.071423,0.402762,-0.063396,0.403112,0.139692,0.403112,
0.198891,0.381565,0.198891,0.381565,$1*%
%AMFreePoly7*
4,1,19,0.178553,0.213392,0.221317,0.164040,0.231790,0.115895,0.231790,-0.115895,0.213392,-0.178553,0.164040,-0.221317,0.115895,-0.231790,-0.115895,-0.231790,-0.178553,-0.213392,-0.221317,-0.164040,-0.231790,-0.115895,-0.231790,0.012362,-0.213392,0.075020,-0.197845,0.094312,-0.094312,0.197845,-0.036997,0.229141,-0.012362,0.231790,0.115895,0.231790,0.178553,0.213392,0.178553,0.213392,
$1*%
G04 Aperture macros list end*
%ADD10C,0.001000*%
%ADD11RoundRect,0.250000X0.450000X-0.262500X0.450000X0.262500X-0.450000X0.262500X-0.450000X-0.262500X0*%
%ADD12RoundRect,0.250000X0.250000X0.475000X-0.250000X0.475000X-0.250000X-0.475000X0.250000X-0.475000X0*%
%ADD13RoundRect,0.250000X0.325000X0.650000X-0.325000X0.650000X-0.325000X-0.650000X0.325000X-0.650000X0*%
%ADD14RoundRect,0.055250X0.340750X0.055250X-0.340750X0.055250X-0.340750X-0.055250X0.340750X-0.055250X0*%
%ADD15RoundRect,0.225000X-0.225000X-0.250000X0.225000X-0.250000X0.225000X0.250000X-0.225000X0.250000X0*%
%ADD16RoundRect,0.250000X-0.475000X0.250000X-0.475000X-0.250000X0.475000X-0.250000X0.475000X0.250000X0*%
%ADD17RoundRect,0.225000X0.225000X0.250000X-0.225000X0.250000X-0.225000X-0.250000X0.225000X-0.250000X0*%
%ADD18RoundRect,0.225000X-0.250000X0.225000X-0.250000X-0.225000X0.250000X-0.225000X0.250000X0.225000X0*%
%ADD19RoundRect,0.250000X-0.262500X-0.450000X0.262500X-0.450000X0.262500X0.450000X-0.262500X0.450000X0*%
%ADD20RoundRect,0.127000X0.023000X-0.373000X0.023000X0.373000X-0.023000X0.373000X-0.023000X-0.373000X0*%
%ADD21R,0.300000X0.500000*%
%ADD22RoundRect,0.127000X1.273000X-0.078000X1.273000X0.078000X-1.273000X0.078000X-1.273000X-0.078000X0*%
%ADD23RoundRect,0.127000X-0.023000X0.373000X-0.023000X-0.373000X0.023000X-0.373000X0.023000X0.373000X0*%
%ADD24RoundRect,0.055250X-0.340750X-0.055250X0.340750X-0.055250X0.340750X0.055250X-0.340750X0.055250X0*%
%ADD25R,2.800000X3.300000*%
%ADD26RoundRect,0.250000X0.412500X1.100000X-0.412500X1.100000X-0.412500X-1.100000X0.412500X-1.100000X0*%
%ADD27RoundRect,0.250000X0.262500X0.450000X-0.262500X0.450000X-0.262500X-0.450000X0.262500X-0.450000X0*%
%ADD28RoundRect,0.250000X-0.250000X-0.475000X0.250000X-0.475000X0.250000X0.475000X-0.250000X0.475000X0*%
%ADD29RoundRect,0.250000X-0.450000X0.262500X-0.450000X-0.262500X0.450000X-0.262500X0.450000X0.262500X0*%
%ADD30RoundRect,0.250000X-0.325000X-0.650000X0.325000X-0.650000X0.325000X0.650000X-0.325000X0.650000X0*%
%ADD31RoundRect,0.250000X0.475000X-0.250000X0.475000X0.250000X-0.475000X0.250000X-0.475000X-0.250000X0*%
%ADD32RoundRect,0.250000X-1.000000X1.500000X-1.000000X-1.500000X1.000000X-1.500000X1.000000X1.500000X0*%
%ADD33RoundRect,0.225000X0.225000X0.375000X-0.225000X0.375000X-0.225000X-0.375000X0.225000X-0.375000X0*%
%ADD34RoundRect,0.082500X0.730000X0.082500X-0.730000X0.082500X-0.730000X-0.082500X0.730000X-0.082500X0*%
%ADD35RoundRect,0.250000X-1.075000X0.400000X-1.075000X-0.400000X1.075000X-0.400000X1.075000X0.400000X0*%
%ADD36RoundRect,0.150000X-0.150000X0.512500X-0.150000X-0.512500X0.150000X-0.512500X0.150000X0.512500X0*%
%ADD37RoundRect,0.250000X1.000000X0.900000X-1.000000X0.900000X-1.000000X-0.900000X1.000000X-0.900000X0*%
%ADD38R,0.450000X1.450000*%
%ADD39FreePoly0,90.000000*%
%ADD40FreePoly1,90.000000*%
%ADD41FreePoly2,90.000000*%
%ADD42FreePoly3,90.000000*%
%ADD43RoundRect,0.201557X0.201556X-0.201556X0.201556X0.201556X-0.201556X0.201556X-0.201556X-0.201556X0*%
%ADD44FreePoly4,90.000000*%
%ADD45FreePoly5,90.000000*%
%ADD46FreePoly6,90.000000*%
%ADD47FreePoly7,90.000000*%
%ADD48RoundRect,0.062500X0.062500X-0.375000X0.062500X0.375000X-0.062500X0.375000X-0.062500X-0.375000X0*%
%ADD49RoundRect,0.062500X0.375000X-0.062500X0.375000X0.062500X-0.375000X0.062500X-0.375000X-0.062500X0*%
%ADD50R,4.000000X1.500000*%
%ADD51RoundRect,0.050000X-0.285000X-0.100000X0.285000X-0.100000X0.285000X0.100000X-0.285000X0.100000X0*%
%ADD52RoundRect,0.050000X0.285000X0.100000X-0.285000X0.100000X-0.285000X-0.100000X0.285000X-0.100000X0*%
%ADD53R,0.300000X0.800000*%
%ADD54RoundRect,0.250000X0.800000X-0.450000X0.800000X0.450000X-0.800000X0.450000X-0.800000X-0.450000X0*%
G04 APERTURE END LIST*
D10*
X191200000Y-168935000D02*
X192400000Y-168935000D01*
X192400000Y-169885000D01*
X191200000Y-169885000D01*
X191200000Y-168935000D01*
G36*
X191200000Y-168935000D02*
G01*
X192400000Y-168935000D01*
X192400000Y-169885000D01*
X191200000Y-169885000D01*
X191200000Y-168935000D01*
G37*
X191210000Y-170795000D02*
X192410000Y-170795000D01*
X192410000Y-171745000D01*
X191210000Y-171745000D01*
X191210000Y-170795000D01*
G36*
X191210000Y-170795000D02*
G01*
X192410000Y-170795000D01*
X192410000Y-171745000D01*
X191210000Y-171745000D01*
X191210000Y-170795000D01*
G37*
X191220000Y-172625000D02*
X192420000Y-172625000D01*
X192420000Y-173575000D01*
X191220000Y-173575000D01*
X191220000Y-172625000D01*
G36*
X191220000Y-172625000D02*
G01*
X192420000Y-172625000D01*
X192420000Y-173575000D01*
X191220000Y-173575000D01*
X191220000Y-172625000D01*
G37*
X191220000Y-174870000D02*
X192420000Y-174870000D01*
X192420000Y-175980000D01*
X191220000Y-175980000D01*
X191220000Y-174870000D01*
G36*
X191220000Y-174870000D02*
G01*
X192420000Y-174870000D01*
X192420000Y-175980000D01*
X191220000Y-175980000D01*
X191220000Y-174870000D01*
G37*
X193350000Y-168935000D02*
X194550000Y-168935000D01*
X194550000Y-169885000D01*
X193350000Y-169885000D01*
X193350000Y-168935000D01*
G36*
X193350000Y-168935000D02*
G01*
X194550000Y-168935000D01*
X194550000Y-169885000D01*
X193350000Y-169885000D01*
X193350000Y-168935000D01*
G37*
X193360000Y-170795000D02*
X194560000Y-170795000D01*
X194560000Y-171745000D01*
X193360000Y-171745000D01*
X193360000Y-170795000D01*
G36*
X193360000Y-170795000D02*
G01*
X194560000Y-170795000D01*
X194560000Y-171745000D01*
X193360000Y-171745000D01*
X193360000Y-170795000D01*
G37*
X193370000Y-172625000D02*
X194570000Y-172625000D01*
X194570000Y-173575000D01*
X193370000Y-173575000D01*
X193370000Y-172625000D01*
G36*
X193370000Y-172625000D02*
G01*
X194570000Y-172625000D01*
X194570000Y-173575000D01*
X193370000Y-173575000D01*
X193370000Y-172625000D01*
G37*
X193400000Y-174850000D02*
X194600000Y-174850000D01*
X194600000Y-175960000D01*
X193400000Y-175960000D01*
X193400000Y-174850000D01*
G36*
X193400000Y-174850000D02*
G01*
X194600000Y-174850000D01*
X194600000Y-175960000D01*
X193400000Y-175960000D01*
X193400000Y-174850000D01*
G37*
X195540000Y-174840000D02*
X196740000Y-174840000D01*
X196740000Y-175960000D01*
X195540000Y-175960000D01*
X195540000Y-174840000D01*
G36*
X195540000Y-174840000D02*
G01*
X196740000Y-174840000D01*
X196740000Y-175960000D01*
X195540000Y-175960000D01*
X195540000Y-174840000D01*
G37*
X195560000Y-168945000D02*
X196760000Y-168945000D01*
X196760000Y-169895000D01*
X195560000Y-169895000D01*
X195560000Y-168945000D01*
G36*
X195560000Y-168945000D02*
G01*
X196760000Y-168945000D01*
X196760000Y-169895000D01*
X195560000Y-169895000D01*
X195560000Y-168945000D01*
G37*
X195570000Y-170805000D02*
X196770000Y-170805000D01*
X196770000Y-171755000D01*
X195570000Y-171755000D01*
X195570000Y-170805000D01*
G36*
X195570000Y-170805000D02*
G01*
X196770000Y-170805000D01*
X196770000Y-171755000D01*
X195570000Y-171755000D01*
X195570000Y-170805000D01*
G37*
X195580000Y-172635000D02*
X196780000Y-172635000D01*
X196780000Y-173585000D01*
X195580000Y-173585000D01*
X195580000Y-172635000D01*
G36*
X195580000Y-172635000D02*
G01*
X196780000Y-172635000D01*
X196780000Y-173585000D01*
X195580000Y-173585000D01*
X195580000Y-172635000D01*
G37*
G36*
X51137500Y-83865000D02*
G01*
X50826500Y-83865000D01*
X50826500Y-84115000D01*
X51137500Y-84115000D01*
X51137500Y-83865000D01*
G37*
G36*
X51137500Y-86125000D02*
G01*
X50826500Y-86125000D01*
X50826500Y-86375000D01*
X51137500Y-86375000D01*
X51137500Y-86125000D01*
G37*
G36*
X52432500Y-83725000D02*
G01*
X51437500Y-83725000D01*
X51437500Y-84975000D01*
X52432500Y-84975000D01*
X52432500Y-83725000D01*
G37*
G36*
X52432500Y-85275000D02*
G01*
X51437500Y-85275000D01*
X51437500Y-86525000D01*
X52432500Y-86525000D01*
X52432500Y-85275000D01*
G37*
G36*
X53727500Y-83725000D02*
G01*
X52732500Y-83725000D01*
X52732500Y-84975000D01*
X53727500Y-84975000D01*
X53727500Y-83725000D01*
G37*
G36*
X53727500Y-85275000D02*
G01*
X52732500Y-85275000D01*
X52732500Y-86525000D01*
X53727500Y-86525000D01*
X53727500Y-85275000D01*
G37*
G36*
X55022500Y-83725000D02*
G01*
X54027500Y-83725000D01*
X54027500Y-84975000D01*
X55022500Y-84975000D01*
X55022500Y-83725000D01*
G37*
G36*
X55022500Y-85275000D02*
G01*
X54027500Y-85275000D01*
X54027500Y-86525000D01*
X55022500Y-86525000D01*
X55022500Y-85275000D01*
G37*
G36*
X56317500Y-83725000D02*
G01*
X55322500Y-83725000D01*
X55322500Y-84975000D01*
X56317500Y-84975000D01*
X56317500Y-83725000D01*
G37*
G36*
X56317500Y-85285000D02*
G01*
X55322500Y-85285000D01*
X55322500Y-86535000D01*
X56317500Y-86535000D01*
X56317500Y-85285000D01*
G37*
G36*
X56928500Y-83875000D02*
G01*
X56617500Y-83875000D01*
X56617500Y-84125000D01*
X56928500Y-84125000D01*
X56928500Y-83875000D01*
G37*
G36*
X56928500Y-86125000D02*
G01*
X56617500Y-86125000D01*
X56617500Y-86375000D01*
X56928500Y-86375000D01*
X56928500Y-86125000D01*
G37*
X172420000Y-152365000D02*
X171220000Y-152365000D01*
X171220000Y-151415000D01*
X172420000Y-151415000D01*
X172420000Y-152365000D01*
G36*
X172420000Y-152365000D02*
G01*
X171220000Y-152365000D01*
X171220000Y-151415000D01*
X172420000Y-151415000D01*
X172420000Y-152365000D01*
G37*
X172430000Y-154195000D02*
X171230000Y-154195000D01*
X171230000Y-153245000D01*
X172430000Y-153245000D01*
X172430000Y-154195000D01*
G36*
X172430000Y-154195000D02*
G01*
X171230000Y-154195000D01*
X171230000Y-153245000D01*
X172430000Y-153245000D01*
X172430000Y-154195000D01*
G37*
X172440000Y-156055000D02*
X171240000Y-156055000D01*
X171240000Y-155105000D01*
X172440000Y-155105000D01*
X172440000Y-156055000D01*
G36*
X172440000Y-156055000D02*
G01*
X171240000Y-156055000D01*
X171240000Y-155105000D01*
X172440000Y-155105000D01*
X172440000Y-156055000D01*
G37*
X172460000Y-150160000D02*
X171260000Y-150160000D01*
X171260000Y-149040000D01*
X172460000Y-149040000D01*
X172460000Y-150160000D01*
G36*
X172460000Y-150160000D02*
G01*
X171260000Y-150160000D01*
X171260000Y-149040000D01*
X172460000Y-149040000D01*
X172460000Y-150160000D01*
G37*
X174600000Y-150150000D02*
X173400000Y-150150000D01*
X173400000Y-149040000D01*
X174600000Y-149040000D01*
X174600000Y-150150000D01*
G36*
X174600000Y-150150000D02*
G01*
X173400000Y-150150000D01*
X173400000Y-149040000D01*
X174600000Y-149040000D01*
X174600000Y-150150000D01*
G37*
X174630000Y-152375000D02*
X173430000Y-152375000D01*
X173430000Y-151425000D01*
X174630000Y-151425000D01*
X174630000Y-152375000D01*
G36*
X174630000Y-152375000D02*
G01*
X173430000Y-152375000D01*
X173430000Y-151425000D01*
X174630000Y-151425000D01*
X174630000Y-152375000D01*
G37*
X174640000Y-154205000D02*
X173440000Y-154205000D01*
X173440000Y-153255000D01*
X174640000Y-153255000D01*
X174640000Y-154205000D01*
G36*
X174640000Y-154205000D02*
G01*
X173440000Y-154205000D01*
X173440000Y-153255000D01*
X174640000Y-153255000D01*
X174640000Y-154205000D01*
G37*
X174650000Y-156065000D02*
X173450000Y-156065000D01*
X173450000Y-155115000D01*
X174650000Y-155115000D01*
X174650000Y-156065000D01*
G36*
X174650000Y-156065000D02*
G01*
X173450000Y-156065000D01*
X173450000Y-155115000D01*
X174650000Y-155115000D01*
X174650000Y-156065000D01*
G37*
X176780000Y-150130000D02*
X175580000Y-150130000D01*
X175580000Y-149020000D01*
X176780000Y-149020000D01*
X176780000Y-150130000D01*
G36*
X176780000Y-150130000D02*
G01*
X175580000Y-150130000D01*
X175580000Y-149020000D01*
X176780000Y-149020000D01*
X176780000Y-150130000D01*
G37*
X176780000Y-152375000D02*
X175580000Y-152375000D01*
X175580000Y-151425000D01*
X176780000Y-151425000D01*
X176780000Y-152375000D01*
G36*
X176780000Y-152375000D02*
G01*
X175580000Y-152375000D01*
X175580000Y-151425000D01*
X176780000Y-151425000D01*
X176780000Y-152375000D01*
G37*
X176790000Y-154205000D02*
X175590000Y-154205000D01*
X175590000Y-153255000D01*
X176790000Y-153255000D01*
X176790000Y-154205000D01*
G36*
X176790000Y-154205000D02*
G01*
X175590000Y-154205000D01*
X175590000Y-153255000D01*
X176790000Y-153255000D01*
X176790000Y-154205000D01*
G37*
X176800000Y-156065000D02*
X175600000Y-156065000D01*
X175600000Y-155115000D01*
X176800000Y-155115000D01*
X176800000Y-156065000D01*
G36*
X176800000Y-156065000D02*
G01*
X175600000Y-156065000D01*
X175600000Y-155115000D01*
X176800000Y-155115000D01*
X176800000Y-156065000D01*
G37*
X92200000Y-168935000D02*
X93400000Y-168935000D01*
X93400000Y-169885000D01*
X92200000Y-169885000D01*
X92200000Y-168935000D01*
G36*
X92200000Y-168935000D02*
G01*
X93400000Y-168935000D01*
X93400000Y-169885000D01*
X92200000Y-169885000D01*
X92200000Y-168935000D01*
G37*
X92210000Y-170795000D02*
X93410000Y-170795000D01*
X93410000Y-171745000D01*
X92210000Y-171745000D01*
X92210000Y-170795000D01*
G36*
X92210000Y-170795000D02*
G01*
X93410000Y-170795000D01*
X93410000Y-171745000D01*
X92210000Y-171745000D01*
X92210000Y-170795000D01*
G37*
X92220000Y-172625000D02*
X93420000Y-172625000D01*
X93420000Y-173575000D01*
X92220000Y-173575000D01*
X92220000Y-172625000D01*
G36*
X92220000Y-172625000D02*
G01*
X93420000Y-172625000D01*
X93420000Y-173575000D01*
X92220000Y-173575000D01*
X92220000Y-172625000D01*
G37*
X92220000Y-174870000D02*
X93420000Y-174870000D01*
X93420000Y-175980000D01*
X92220000Y-175980000D01*
X92220000Y-174870000D01*
G36*
X92220000Y-174870000D02*
G01*
X93420000Y-174870000D01*
X93420000Y-175980000D01*
X92220000Y-175980000D01*
X92220000Y-174870000D01*
G37*
X94350000Y-168935000D02*
X95550000Y-168935000D01*
X95550000Y-169885000D01*
X94350000Y-169885000D01*
X94350000Y-168935000D01*
G36*
X94350000Y-168935000D02*
G01*
X95550000Y-168935000D01*
X95550000Y-169885000D01*
X94350000Y-169885000D01*
X94350000Y-168935000D01*
G37*
X94360000Y-170795000D02*
X95560000Y-170795000D01*
X95560000Y-171745000D01*
X94360000Y-171745000D01*
X94360000Y-170795000D01*
G36*
X94360000Y-170795000D02*
G01*
X95560000Y-170795000D01*
X95560000Y-171745000D01*
X94360000Y-171745000D01*
X94360000Y-170795000D01*
G37*
X94370000Y-172625000D02*
X95570000Y-172625000D01*
X95570000Y-173575000D01*
X94370000Y-173575000D01*
X94370000Y-172625000D01*
G36*
X94370000Y-172625000D02*
G01*
X95570000Y-172625000D01*
X95570000Y-173575000D01*
X94370000Y-173575000D01*
X94370000Y-172625000D01*
G37*
X94400000Y-174850000D02*
X95600000Y-174850000D01*
X95600000Y-175960000D01*
X94400000Y-175960000D01*
X94400000Y-174850000D01*
G36*
X94400000Y-174850000D02*
G01*
X95600000Y-174850000D01*
X95600000Y-175960000D01*
X94400000Y-175960000D01*
X94400000Y-174850000D01*
G37*
X96540000Y-174840000D02*
X97740000Y-174840000D01*
X97740000Y-175960000D01*
X96540000Y-175960000D01*
X96540000Y-174840000D01*
G36*
X96540000Y-174840000D02*
G01*
X97740000Y-174840000D01*
X97740000Y-175960000D01*
X96540000Y-175960000D01*
X96540000Y-174840000D01*
G37*
X96560000Y-168945000D02*
X97760000Y-168945000D01*
X97760000Y-169895000D01*
X96560000Y-169895000D01*
X96560000Y-168945000D01*
G36*
X96560000Y-168945000D02*
G01*
X97760000Y-168945000D01*
X97760000Y-169895000D01*
X96560000Y-169895000D01*
X96560000Y-168945000D01*
G37*
X96570000Y-170805000D02*
X97770000Y-170805000D01*
X97770000Y-171755000D01*
X96570000Y-171755000D01*
X96570000Y-170805000D01*
G36*
X96570000Y-170805000D02*
G01*
X97770000Y-170805000D01*
X97770000Y-171755000D01*
X96570000Y-171755000D01*
X96570000Y-170805000D01*
G37*
X96580000Y-172635000D02*
X97780000Y-172635000D01*
X97780000Y-173585000D01*
X96580000Y-173585000D01*
X96580000Y-172635000D01*
G36*
X96580000Y-172635000D02*
G01*
X97780000Y-172635000D01*
X97780000Y-173585000D01*
X96580000Y-173585000D01*
X96580000Y-172635000D01*
G37*
G36*
X154460000Y-84040000D02*
G01*
X154149000Y-84040000D01*
X154149000Y-84290000D01*
X154460000Y-84290000D01*
X154460000Y-84040000D01*
G37*
G36*
X154460000Y-86300000D02*
G01*
X154149000Y-86300000D01*
X154149000Y-86550000D01*
X154460000Y-86550000D01*
X154460000Y-86300000D01*
G37*
G36*
X155755000Y-83900000D02*
G01*
X154760000Y-83900000D01*
X154760000Y-85150000D01*
X155755000Y-85150000D01*
X155755000Y-83900000D01*
G37*
G36*
X155755000Y-85450000D02*
G01*
X154760000Y-85450000D01*
X154760000Y-86700000D01*
X155755000Y-86700000D01*
X155755000Y-85450000D01*
G37*
G36*
X157050000Y-83900000D02*
G01*
X156055000Y-83900000D01*
X156055000Y-85150000D01*
X157050000Y-85150000D01*
X157050000Y-83900000D01*
G37*
G36*
X157050000Y-85450000D02*
G01*
X156055000Y-85450000D01*
X156055000Y-86700000D01*
X157050000Y-86700000D01*
X157050000Y-85450000D01*
G37*
G36*
X158345000Y-83900000D02*
G01*
X157350000Y-83900000D01*
X157350000Y-85150000D01*
X158345000Y-85150000D01*
X158345000Y-83900000D01*
G37*
G36*
X158345000Y-85450000D02*
G01*
X157350000Y-85450000D01*
X157350000Y-86700000D01*
X158345000Y-86700000D01*
X158345000Y-85450000D01*
G37*
G36*
X159640000Y-83900000D02*
G01*
X158645000Y-83900000D01*
X158645000Y-85150000D01*
X159640000Y-85150000D01*
X159640000Y-83900000D01*
G37*
G36*
X159640000Y-85460000D02*
G01*
X158645000Y-85460000D01*
X158645000Y-86710000D01*
X159640000Y-86710000D01*
X159640000Y-85460000D01*
G37*
G36*
X160251000Y-84050000D02*
G01*
X159940000Y-84050000D01*
X159940000Y-84300000D01*
X160251000Y-84300000D01*
X160251000Y-84050000D01*
G37*
G36*
X160251000Y-86300000D02*
G01*
X159940000Y-86300000D01*
X159940000Y-86550000D01*
X160251000Y-86550000D01*
X160251000Y-86300000D01*
G37*
G36*
X76757500Y-83740000D02*
G01*
X76446500Y-83740000D01*
X76446500Y-83990000D01*
X76757500Y-83990000D01*
X76757500Y-83740000D01*
G37*
G36*
X76757500Y-86000000D02*
G01*
X76446500Y-86000000D01*
X76446500Y-86250000D01*
X76757500Y-86250000D01*
X76757500Y-86000000D01*
G37*
G36*
X78052500Y-83600000D02*
G01*
X77057500Y-83600000D01*
X77057500Y-84850000D01*
X78052500Y-84850000D01*
X78052500Y-83600000D01*
G37*
G36*
X78052500Y-85150000D02*
G01*
X77057500Y-85150000D01*
X77057500Y-86400000D01*
X78052500Y-86400000D01*
X78052500Y-85150000D01*
G37*
G36*
X79347500Y-83600000D02*
G01*
X78352500Y-83600000D01*
X78352500Y-84850000D01*
X79347500Y-84850000D01*
X79347500Y-83600000D01*
G37*
G36*
X79347500Y-85150000D02*
G01*
X78352500Y-85150000D01*
X78352500Y-86400000D01*
X79347500Y-86400000D01*
X79347500Y-85150000D01*
G37*
G36*
X80642500Y-83600000D02*
G01*
X79647500Y-83600000D01*
X79647500Y-84850000D01*
X80642500Y-84850000D01*
X80642500Y-83600000D01*
G37*
G36*
X80642500Y-85150000D02*
G01*
X79647500Y-85150000D01*
X79647500Y-86400000D01*
X80642500Y-86400000D01*
X80642500Y-85150000D01*
G37*
G36*
X81937500Y-83600000D02*
G01*
X80942500Y-83600000D01*
X80942500Y-84850000D01*
X81937500Y-84850000D01*
X81937500Y-83600000D01*
G37*
G36*
X81937500Y-85160000D02*
G01*
X80942500Y-85160000D01*
X80942500Y-86410000D01*
X81937500Y-86410000D01*
X81937500Y-85160000D01*
G37*
G36*
X82548500Y-83750000D02*
G01*
X82237500Y-83750000D01*
X82237500Y-84000000D01*
X82548500Y-84000000D01*
X82548500Y-83750000D01*
G37*
G36*
X82548500Y-86000000D02*
G01*
X82237500Y-86000000D01*
X82237500Y-86250000D01*
X82548500Y-86250000D01*
X82548500Y-86000000D01*
G37*
X72200000Y-168935000D02*
X73400000Y-168935000D01*
X73400000Y-169885000D01*
X72200000Y-169885000D01*
X72200000Y-168935000D01*
G36*
X72200000Y-168935000D02*
G01*
X73400000Y-168935000D01*
X73400000Y-169885000D01*
X72200000Y-169885000D01*
X72200000Y-168935000D01*
G37*
X72210000Y-170795000D02*
X73410000Y-170795000D01*
X73410000Y-171745000D01*
X72210000Y-171745000D01*
X72210000Y-170795000D01*
G36*
X72210000Y-170795000D02*
G01*
X73410000Y-170795000D01*
X73410000Y-171745000D01*
X72210000Y-171745000D01*
X72210000Y-170795000D01*
G37*
X72220000Y-172625000D02*
X73420000Y-172625000D01*
X73420000Y-173575000D01*
X72220000Y-173575000D01*
X72220000Y-172625000D01*
G36*
X72220000Y-172625000D02*
G01*
X73420000Y-172625000D01*
X73420000Y-173575000D01*
X72220000Y-173575000D01*
X72220000Y-172625000D01*
G37*
X72220000Y-174870000D02*
X73420000Y-174870000D01*
X73420000Y-175980000D01*
X72220000Y-175980000D01*
X72220000Y-174870000D01*
G36*
X72220000Y-174870000D02*
G01*
X73420000Y-174870000D01*
X73420000Y-175980000D01*
X72220000Y-175980000D01*
X72220000Y-174870000D01*
G37*
X74350000Y-168935000D02*
X75550000Y-168935000D01*
X75550000Y-169885000D01*
X74350000Y-169885000D01*
X74350000Y-168935000D01*
G36*
X74350000Y-168935000D02*
G01*
X75550000Y-168935000D01*
X75550000Y-169885000D01*
X74350000Y-169885000D01*
X74350000Y-168935000D01*
G37*
X74360000Y-170795000D02*
X75560000Y-170795000D01*
X75560000Y-171745000D01*
X74360000Y-171745000D01*
X74360000Y-170795000D01*
G36*
X74360000Y-170795000D02*
G01*
X75560000Y-170795000D01*
X75560000Y-171745000D01*
X74360000Y-171745000D01*
X74360000Y-170795000D01*
G37*
X74370000Y-172625000D02*
X75570000Y-172625000D01*
X75570000Y-173575000D01*
X74370000Y-173575000D01*
X74370000Y-172625000D01*
G36*
X74370000Y-172625000D02*
G01*
X75570000Y-172625000D01*
X75570000Y-173575000D01*
X74370000Y-173575000D01*
X74370000Y-172625000D01*
G37*
X74400000Y-174850000D02*
X75600000Y-174850000D01*
X75600000Y-175960000D01*
X74400000Y-175960000D01*
X74400000Y-174850000D01*
G36*
X74400000Y-174850000D02*
G01*
X75600000Y-174850000D01*
X75600000Y-175960000D01*
X74400000Y-175960000D01*
X74400000Y-174850000D01*
G37*
X76540000Y-174840000D02*
X77740000Y-174840000D01*
X77740000Y-175960000D01*
X76540000Y-175960000D01*
X76540000Y-174840000D01*
G36*
X76540000Y-174840000D02*
G01*
X77740000Y-174840000D01*
X77740000Y-175960000D01*
X76540000Y-175960000D01*
X76540000Y-174840000D01*
G37*
X76560000Y-168945000D02*
X77760000Y-168945000D01*
X77760000Y-169895000D01*
X76560000Y-169895000D01*
X76560000Y-168945000D01*
G36*
X76560000Y-168945000D02*
G01*
X77760000Y-168945000D01*
X77760000Y-169895000D01*
X76560000Y-169895000D01*
X76560000Y-168945000D01*
G37*
X76570000Y-170805000D02*
X77770000Y-170805000D01*
X77770000Y-171755000D01*
X76570000Y-171755000D01*
X76570000Y-170805000D01*
G36*
X76570000Y-170805000D02*
G01*
X77770000Y-170805000D01*
X77770000Y-171755000D01*
X76570000Y-171755000D01*
X76570000Y-170805000D01*
G37*
X76580000Y-172635000D02*
X77780000Y-172635000D01*
X77780000Y-173585000D01*
X76580000Y-173585000D01*
X76580000Y-172635000D01*
G36*
X76580000Y-172635000D02*
G01*
X77780000Y-172635000D01*
X77780000Y-173585000D01*
X76580000Y-173585000D01*
X76580000Y-172635000D01*
G37*
G36*
X102460000Y-84040000D02*
G01*
X102149000Y-84040000D01*
X102149000Y-84290000D01*
X102460000Y-84290000D01*
X102460000Y-84040000D01*
G37*
G36*
X102460000Y-86300000D02*
G01*
X102149000Y-86300000D01*
X102149000Y-86550000D01*
X102460000Y-86550000D01*
X102460000Y-86300000D01*
G37*
G36*
X103755000Y-83900000D02*
G01*
X102760000Y-83900000D01*
X102760000Y-85150000D01*
X103755000Y-85150000D01*
X103755000Y-83900000D01*
G37*
G36*
X103755000Y-85450000D02*
G01*
X102760000Y-85450000D01*
X102760000Y-86700000D01*
X103755000Y-86700000D01*
X103755000Y-85450000D01*
G37*
G36*
X105050000Y-83900000D02*
G01*
X104055000Y-83900000D01*
X104055000Y-85150000D01*
X105050000Y-85150000D01*
X105050000Y-83900000D01*
G37*
G36*
X105050000Y-85450000D02*
G01*
X104055000Y-85450000D01*
X104055000Y-86700000D01*
X105050000Y-86700000D01*
X105050000Y-85450000D01*
G37*
G36*
X106345000Y-83900000D02*
G01*
X105350000Y-83900000D01*
X105350000Y-85150000D01*
X106345000Y-85150000D01*
X106345000Y-83900000D01*
G37*
G36*
X106345000Y-85450000D02*
G01*
X105350000Y-85450000D01*
X105350000Y-86700000D01*
X106345000Y-86700000D01*
X106345000Y-85450000D01*
G37*
G36*
X107640000Y-83900000D02*
G01*
X106645000Y-83900000D01*
X106645000Y-85150000D01*
X107640000Y-85150000D01*
X107640000Y-83900000D01*
G37*
G36*
X107640000Y-85460000D02*
G01*
X106645000Y-85460000D01*
X106645000Y-86710000D01*
X107640000Y-86710000D01*
X107640000Y-85460000D01*
G37*
G36*
X108251000Y-84050000D02*
G01*
X107940000Y-84050000D01*
X107940000Y-84300000D01*
X108251000Y-84300000D01*
X108251000Y-84050000D01*
G37*
G36*
X108251000Y-86300000D02*
G01*
X107940000Y-86300000D01*
X107940000Y-86550000D01*
X108251000Y-86550000D01*
X108251000Y-86300000D01*
G37*
X73420000Y-152365000D02*
X72220000Y-152365000D01*
X72220000Y-151415000D01*
X73420000Y-151415000D01*
X73420000Y-152365000D01*
G36*
X73420000Y-152365000D02*
G01*
X72220000Y-152365000D01*
X72220000Y-151415000D01*
X73420000Y-151415000D01*
X73420000Y-152365000D01*
G37*
X73430000Y-154195000D02*
X72230000Y-154195000D01*
X72230000Y-153245000D01*
X73430000Y-153245000D01*
X73430000Y-154195000D01*
G36*
X73430000Y-154195000D02*
G01*
X72230000Y-154195000D01*
X72230000Y-153245000D01*
X73430000Y-153245000D01*
X73430000Y-154195000D01*
G37*
X73440000Y-156055000D02*
X72240000Y-156055000D01*
X72240000Y-155105000D01*
X73440000Y-155105000D01*
X73440000Y-156055000D01*
G36*
X73440000Y-156055000D02*
G01*
X72240000Y-156055000D01*
X72240000Y-155105000D01*
X73440000Y-155105000D01*
X73440000Y-156055000D01*
G37*
X73460000Y-150160000D02*
X72260000Y-150160000D01*
X72260000Y-149040000D01*
X73460000Y-149040000D01*
X73460000Y-150160000D01*
G36*
X73460000Y-150160000D02*
G01*
X72260000Y-150160000D01*
X72260000Y-149040000D01*
X73460000Y-149040000D01*
X73460000Y-150160000D01*
G37*
X75600000Y-150150000D02*
X74400000Y-150150000D01*
X74400000Y-149040000D01*
X75600000Y-149040000D01*
X75600000Y-150150000D01*
G36*
X75600000Y-150150000D02*
G01*
X74400000Y-150150000D01*
X74400000Y-149040000D01*
X75600000Y-149040000D01*
X75600000Y-150150000D01*
G37*
X75630000Y-152375000D02*
X74430000Y-152375000D01*
X74430000Y-151425000D01*
X75630000Y-151425000D01*
X75630000Y-152375000D01*
G36*
X75630000Y-152375000D02*
G01*
X74430000Y-152375000D01*
X74430000Y-151425000D01*
X75630000Y-151425000D01*
X75630000Y-152375000D01*
G37*
X75640000Y-154205000D02*
X74440000Y-154205000D01*
X74440000Y-153255000D01*
X75640000Y-153255000D01*
X75640000Y-154205000D01*
G36*
X75640000Y-154205000D02*
G01*
X74440000Y-154205000D01*
X74440000Y-153255000D01*
X75640000Y-153255000D01*
X75640000Y-154205000D01*
G37*
X75650000Y-156065000D02*
X74450000Y-156065000D01*
X74450000Y-155115000D01*
X75650000Y-155115000D01*
X75650000Y-156065000D01*
G36*
X75650000Y-156065000D02*
G01*
X74450000Y-156065000D01*
X74450000Y-155115000D01*
X75650000Y-155115000D01*
X75650000Y-156065000D01*
G37*
X77780000Y-150130000D02*
X76580000Y-150130000D01*
X76580000Y-149020000D01*
X77780000Y-149020000D01*
X77780000Y-150130000D01*
G36*
X77780000Y-150130000D02*
G01*
X76580000Y-150130000D01*
X76580000Y-149020000D01*
X77780000Y-149020000D01*
X77780000Y-150130000D01*
G37*
X77780000Y-152375000D02*
X76580000Y-152375000D01*
X76580000Y-151425000D01*
X77780000Y-151425000D01*
X77780000Y-152375000D01*
G36*
X77780000Y-152375000D02*
G01*
X76580000Y-152375000D01*
X76580000Y-151425000D01*
X77780000Y-151425000D01*
X77780000Y-152375000D01*
G37*
X77790000Y-154205000D02*
X76590000Y-154205000D01*
X76590000Y-153255000D01*
X77790000Y-153255000D01*
X77790000Y-154205000D01*
G36*
X77790000Y-154205000D02*
G01*
X76590000Y-154205000D01*
X76590000Y-153255000D01*
X77790000Y-153255000D01*
X77790000Y-154205000D01*
G37*
X77800000Y-156065000D02*
X76600000Y-156065000D01*
X76600000Y-155115000D01*
X77800000Y-155115000D01*
X77800000Y-156065000D01*
G36*
X77800000Y-156065000D02*
G01*
X76600000Y-156065000D01*
X76600000Y-155115000D01*
X77800000Y-155115000D01*
X77800000Y-156065000D01*
G37*
G36*
X128260000Y-83840000D02*
G01*
X127949000Y-83840000D01*
X127949000Y-84090000D01*
X128260000Y-84090000D01*
X128260000Y-83840000D01*
G37*
G36*
X128260000Y-86100000D02*
G01*
X127949000Y-86100000D01*
X127949000Y-86350000D01*
X128260000Y-86350000D01*
X128260000Y-86100000D01*
G37*
G36*
X129555000Y-83700000D02*
G01*
X128560000Y-83700000D01*
X128560000Y-84950000D01*
X129555000Y-84950000D01*
X129555000Y-83700000D01*
G37*
G36*
X129555000Y-85250000D02*
G01*
X128560000Y-85250000D01*
X128560000Y-86500000D01*
X129555000Y-86500000D01*
X129555000Y-85250000D01*
G37*
G36*
X130850000Y-83700000D02*
G01*
X129855000Y-83700000D01*
X129855000Y-84950000D01*
X130850000Y-84950000D01*
X130850000Y-83700000D01*
G37*
G36*
X130850000Y-85250000D02*
G01*
X129855000Y-85250000D01*
X129855000Y-86500000D01*
X130850000Y-86500000D01*
X130850000Y-85250000D01*
G37*
G36*
X132145000Y-83700000D02*
G01*
X131150000Y-83700000D01*
X131150000Y-84950000D01*
X132145000Y-84950000D01*
X132145000Y-83700000D01*
G37*
G36*
X132145000Y-85250000D02*
G01*
X131150000Y-85250000D01*
X131150000Y-86500000D01*
X132145000Y-86500000D01*
X132145000Y-85250000D01*
G37*
G36*
X133440000Y-83700000D02*
G01*
X132445000Y-83700000D01*
X132445000Y-84950000D01*
X133440000Y-84950000D01*
X133440000Y-83700000D01*
G37*
G36*
X133440000Y-85260000D02*
G01*
X132445000Y-85260000D01*
X132445000Y-86510000D01*
X133440000Y-86510000D01*
X133440000Y-85260000D01*
G37*
G36*
X134051000Y-83850000D02*
G01*
X133740000Y-83850000D01*
X133740000Y-84100000D01*
X134051000Y-84100000D01*
X134051000Y-83850000D01*
G37*
G36*
X134051000Y-86100000D02*
G01*
X133740000Y-86100000D01*
X133740000Y-86350000D01*
X134051000Y-86350000D01*
X134051000Y-86100000D01*
G37*
X93420000Y-152365000D02*
X92220000Y-152365000D01*
X92220000Y-151415000D01*
X93420000Y-151415000D01*
X93420000Y-152365000D01*
G36*
X93420000Y-152365000D02*
G01*
X92220000Y-152365000D01*
X92220000Y-151415000D01*
X93420000Y-151415000D01*
X93420000Y-152365000D01*
G37*
X93430000Y-154195000D02*
X92230000Y-154195000D01*
X92230000Y-153245000D01*
X93430000Y-153245000D01*
X93430000Y-154195000D01*
G36*
X93430000Y-154195000D02*
G01*
X92230000Y-154195000D01*
X92230000Y-153245000D01*
X93430000Y-153245000D01*
X93430000Y-154195000D01*
G37*
X93440000Y-156055000D02*
X92240000Y-156055000D01*
X92240000Y-155105000D01*
X93440000Y-155105000D01*
X93440000Y-156055000D01*
G36*
X93440000Y-156055000D02*
G01*
X92240000Y-156055000D01*
X92240000Y-155105000D01*
X93440000Y-155105000D01*
X93440000Y-156055000D01*
G37*
X93460000Y-150160000D02*
X92260000Y-150160000D01*
X92260000Y-149040000D01*
X93460000Y-149040000D01*
X93460000Y-150160000D01*
G36*
X93460000Y-150160000D02*
G01*
X92260000Y-150160000D01*
X92260000Y-149040000D01*
X93460000Y-149040000D01*
X93460000Y-150160000D01*
G37*
X95600000Y-150150000D02*
X94400000Y-150150000D01*
X94400000Y-149040000D01*
X95600000Y-149040000D01*
X95600000Y-150150000D01*
G36*
X95600000Y-150150000D02*
G01*
X94400000Y-150150000D01*
X94400000Y-149040000D01*
X95600000Y-149040000D01*
X95600000Y-150150000D01*
G37*
X95630000Y-152375000D02*
X94430000Y-152375000D01*
X94430000Y-151425000D01*
X95630000Y-151425000D01*
X95630000Y-152375000D01*
G36*
X95630000Y-152375000D02*
G01*
X94430000Y-152375000D01*
X94430000Y-151425000D01*
X95630000Y-151425000D01*
X95630000Y-152375000D01*
G37*
X95640000Y-154205000D02*
X94440000Y-154205000D01*
X94440000Y-153255000D01*
X95640000Y-153255000D01*
X95640000Y-154205000D01*
G36*
X95640000Y-154205000D02*
G01*
X94440000Y-154205000D01*
X94440000Y-153255000D01*
X95640000Y-153255000D01*
X95640000Y-154205000D01*
G37*
X95650000Y-156065000D02*
X94450000Y-156065000D01*
X94450000Y-155115000D01*
X95650000Y-155115000D01*
X95650000Y-156065000D01*
G36*
X95650000Y-156065000D02*
G01*
X94450000Y-156065000D01*
X94450000Y-155115000D01*
X95650000Y-155115000D01*
X95650000Y-156065000D01*
G37*
X97780000Y-150130000D02*
X96580000Y-150130000D01*
X96580000Y-149020000D01*
X97780000Y-149020000D01*
X97780000Y-150130000D01*
G36*
X97780000Y-150130000D02*
G01*
X96580000Y-150130000D01*
X96580000Y-149020000D01*
X97780000Y-149020000D01*
X97780000Y-150130000D01*
G37*
X97780000Y-152375000D02*
X96580000Y-152375000D01*
X96580000Y-151425000D01*
X97780000Y-151425000D01*
X97780000Y-152375000D01*
G36*
X97780000Y-152375000D02*
G01*
X96580000Y-152375000D01*
X96580000Y-151425000D01*
X97780000Y-151425000D01*
X97780000Y-152375000D01*
G37*
X97790000Y-154205000D02*
X96590000Y-154205000D01*
X96590000Y-153255000D01*
X97790000Y-153255000D01*
X97790000Y-154205000D01*
G36*
X97790000Y-154205000D02*
G01*
X96590000Y-154205000D01*
X96590000Y-153255000D01*
X97790000Y-153255000D01*
X97790000Y-154205000D01*
G37*
X97800000Y-156065000D02*
X96600000Y-156065000D01*
X96600000Y-155115000D01*
X97800000Y-155115000D01*
X97800000Y-156065000D01*
G36*
X97800000Y-156065000D02*
G01*
X96600000Y-156065000D01*
X96600000Y-155115000D01*
X97800000Y-155115000D01*
X97800000Y-156065000D01*
G37*
X171200000Y-168935000D02*
X172400000Y-168935000D01*
X172400000Y-169885000D01*
X171200000Y-169885000D01*
X171200000Y-168935000D01*
G36*
X171200000Y-168935000D02*
G01*
X172400000Y-168935000D01*
X172400000Y-169885000D01*
X171200000Y-169885000D01*
X171200000Y-168935000D01*
G37*
X171210000Y-170795000D02*
X172410000Y-170795000D01*
X172410000Y-171745000D01*
X171210000Y-171745000D01*
X171210000Y-170795000D01*
G36*
X171210000Y-170795000D02*
G01*
X172410000Y-170795000D01*
X172410000Y-171745000D01*
X171210000Y-171745000D01*
X171210000Y-170795000D01*
G37*
X171220000Y-172625000D02*
X172420000Y-172625000D01*
X172420000Y-173575000D01*
X171220000Y-173575000D01*
X171220000Y-172625000D01*
G36*
X171220000Y-172625000D02*
G01*
X172420000Y-172625000D01*
X172420000Y-173575000D01*
X171220000Y-173575000D01*
X171220000Y-172625000D01*
G37*
X171220000Y-174870000D02*
X172420000Y-174870000D01*
X172420000Y-175980000D01*
X171220000Y-175980000D01*
X171220000Y-174870000D01*
G36*
X171220000Y-174870000D02*
G01*
X172420000Y-174870000D01*
X172420000Y-175980000D01*
X171220000Y-175980000D01*
X171220000Y-174870000D01*
G37*
X173350000Y-168935000D02*
X174550000Y-168935000D01*
X174550000Y-169885000D01*
X173350000Y-169885000D01*
X173350000Y-168935000D01*
G36*
X173350000Y-168935000D02*
G01*
X174550000Y-168935000D01*
X174550000Y-169885000D01*
X173350000Y-169885000D01*
X173350000Y-168935000D01*
G37*
X173360000Y-170795000D02*
X174560000Y-170795000D01*
X174560000Y-171745000D01*
X173360000Y-171745000D01*
X173360000Y-170795000D01*
G36*
X173360000Y-170795000D02*
G01*
X174560000Y-170795000D01*
X174560000Y-171745000D01*
X173360000Y-171745000D01*
X173360000Y-170795000D01*
G37*
X173370000Y-172625000D02*
X174570000Y-172625000D01*
X174570000Y-173575000D01*
X173370000Y-173575000D01*
X173370000Y-172625000D01*
G36*
X173370000Y-172625000D02*
G01*
X174570000Y-172625000D01*
X174570000Y-173575000D01*
X173370000Y-173575000D01*
X173370000Y-172625000D01*
G37*
X173400000Y-174850000D02*
X174600000Y-174850000D01*
X174600000Y-175960000D01*
X173400000Y-175960000D01*
X173400000Y-174850000D01*
G36*
X173400000Y-174850000D02*
G01*
X174600000Y-174850000D01*
X174600000Y-175960000D01*
X173400000Y-175960000D01*
X173400000Y-174850000D01*
G37*
X175540000Y-174840000D02*
X176740000Y-174840000D01*
X176740000Y-175960000D01*
X175540000Y-175960000D01*
X175540000Y-174840000D01*
G36*
X175540000Y-174840000D02*
G01*
X176740000Y-174840000D01*
X176740000Y-175960000D01*
X175540000Y-175960000D01*
X175540000Y-174840000D01*
G37*
X175560000Y-168945000D02*
X176760000Y-168945000D01*
X176760000Y-169895000D01*
X175560000Y-169895000D01*
X175560000Y-168945000D01*
G36*
X175560000Y-168945000D02*
G01*
X176760000Y-168945000D01*
X176760000Y-169895000D01*
X175560000Y-169895000D01*
X175560000Y-168945000D01*
G37*
X175570000Y-170805000D02*
X176770000Y-170805000D01*
X176770000Y-171755000D01*
X175570000Y-171755000D01*
X175570000Y-170805000D01*
G36*
X175570000Y-170805000D02*
G01*
X176770000Y-170805000D01*
X176770000Y-171755000D01*
X175570000Y-171755000D01*
X175570000Y-170805000D01*
G37*
X175580000Y-172635000D02*
X176780000Y-172635000D01*
X176780000Y-173585000D01*
X175580000Y-173585000D01*
X175580000Y-172635000D01*
G36*
X175580000Y-172635000D02*
G01*
X176780000Y-172635000D01*
X176780000Y-173585000D01*
X175580000Y-173585000D01*
X175580000Y-172635000D01*
G37*
X192420000Y-152365000D02*
X191220000Y-152365000D01*
X191220000Y-151415000D01*
X192420000Y-151415000D01*
X192420000Y-152365000D01*
G36*
X192420000Y-152365000D02*
G01*
X191220000Y-152365000D01*
X191220000Y-151415000D01*
X192420000Y-151415000D01*
X192420000Y-152365000D01*
G37*
X192430000Y-154195000D02*
X191230000Y-154195000D01*
X191230000Y-153245000D01*
X192430000Y-153245000D01*
X192430000Y-154195000D01*
G36*
X192430000Y-154195000D02*
G01*
X191230000Y-154195000D01*
X191230000Y-153245000D01*
X192430000Y-153245000D01*
X192430000Y-154195000D01*
G37*
X192440000Y-156055000D02*
X191240000Y-156055000D01*
X191240000Y-155105000D01*
X192440000Y-155105000D01*
X192440000Y-156055000D01*
G36*
X192440000Y-156055000D02*
G01*
X191240000Y-156055000D01*
X191240000Y-155105000D01*
X192440000Y-155105000D01*
X192440000Y-156055000D01*
G37*
X192460000Y-150160000D02*
X191260000Y-150160000D01*
X191260000Y-149040000D01*
X192460000Y-149040000D01*
X192460000Y-150160000D01*
G36*
X192460000Y-150160000D02*
G01*
X191260000Y-150160000D01*
X191260000Y-149040000D01*
X192460000Y-149040000D01*
X192460000Y-150160000D01*
G37*
X194600000Y-150150000D02*
X193400000Y-150150000D01*
X193400000Y-149040000D01*
X194600000Y-149040000D01*
X194600000Y-150150000D01*
G36*
X194600000Y-150150000D02*
G01*
X193400000Y-150150000D01*
X193400000Y-149040000D01*
X194600000Y-149040000D01*
X194600000Y-150150000D01*
G37*
X194630000Y-152375000D02*
X193430000Y-152375000D01*
X193430000Y-151425000D01*
X194630000Y-151425000D01*
X194630000Y-152375000D01*
G36*
X194630000Y-152375000D02*
G01*
X193430000Y-152375000D01*
X193430000Y-151425000D01*
X194630000Y-151425000D01*
X194630000Y-152375000D01*
G37*
X194640000Y-154205000D02*
X193440000Y-154205000D01*
X193440000Y-153255000D01*
X194640000Y-153255000D01*
X194640000Y-154205000D01*
G36*
X194640000Y-154205000D02*
G01*
X193440000Y-154205000D01*
X193440000Y-153255000D01*
X194640000Y-153255000D01*
X194640000Y-154205000D01*
G37*
X194650000Y-156065000D02*
X193450000Y-156065000D01*
X193450000Y-155115000D01*
X194650000Y-155115000D01*
X194650000Y-156065000D01*
G36*
X194650000Y-156065000D02*
G01*
X193450000Y-156065000D01*
X193450000Y-155115000D01*
X194650000Y-155115000D01*
X194650000Y-156065000D01*
G37*
X196780000Y-150130000D02*
X195580000Y-150130000D01*
X195580000Y-149020000D01*
X196780000Y-149020000D01*
X196780000Y-150130000D01*
G36*
X196780000Y-150130000D02*
G01*
X195580000Y-150130000D01*
X195580000Y-149020000D01*
X196780000Y-149020000D01*
X196780000Y-150130000D01*
G37*
X196780000Y-152375000D02*
X195580000Y-152375000D01*
X195580000Y-151425000D01*
X196780000Y-151425000D01*
X196780000Y-152375000D01*
G36*
X196780000Y-152375000D02*
G01*
X195580000Y-152375000D01*
X195580000Y-151425000D01*
X196780000Y-151425000D01*
X196780000Y-152375000D01*
G37*
X196790000Y-154205000D02*
X195590000Y-154205000D01*
X195590000Y-153255000D01*
X196790000Y-153255000D01*
X196790000Y-154205000D01*
G36*
X196790000Y-154205000D02*
G01*
X195590000Y-154205000D01*
X195590000Y-153255000D01*
X196790000Y-153255000D01*
X196790000Y-154205000D01*
G37*
X196800000Y-156065000D02*
X195600000Y-156065000D01*
X195600000Y-155115000D01*
X196800000Y-155115000D01*
X196800000Y-156065000D01*
G36*
X196800000Y-156065000D02*
G01*
X195600000Y-156065000D01*
X195600000Y-155115000D01*
X196800000Y-155115000D01*
X196800000Y-156065000D01*
G37*
G36*
X179677500Y-84040000D02*
G01*
X179366500Y-84040000D01*
X179366500Y-84290000D01*
X179677500Y-84290000D01*
X179677500Y-84040000D01*
G37*
G36*
X179677500Y-86300000D02*
G01*
X179366500Y-86300000D01*
X179366500Y-86550000D01*
X179677500Y-86550000D01*
X179677500Y-86300000D01*
G37*
G36*
X180972500Y-83900000D02*
G01*
X179977500Y-83900000D01*
X179977500Y-85150000D01*
X180972500Y-85150000D01*
X180972500Y-83900000D01*
G37*
G36*
X180972500Y-85450000D02*
G01*
X179977500Y-85450000D01*
X179977500Y-86700000D01*
X180972500Y-86700000D01*
X180972500Y-85450000D01*
G37*
G36*
X182267500Y-83900000D02*
G01*
X181272500Y-83900000D01*
X181272500Y-85150000D01*
X182267500Y-85150000D01*
X182267500Y-83900000D01*
G37*
G36*
X182267500Y-85450000D02*
G01*
X181272500Y-85450000D01*
X181272500Y-86700000D01*
X182267500Y-86700000D01*
X182267500Y-85450000D01*
G37*
G36*
X183562500Y-83900000D02*
G01*
X182567500Y-83900000D01*
X182567500Y-85150000D01*
X183562500Y-85150000D01*
X183562500Y-83900000D01*
G37*
G36*
X183562500Y-85450000D02*
G01*
X182567500Y-85450000D01*
X182567500Y-86700000D01*
X183562500Y-86700000D01*
X183562500Y-85450000D01*
G37*
G36*
X184857500Y-83900000D02*
G01*
X183862500Y-83900000D01*
X183862500Y-85150000D01*
X184857500Y-85150000D01*
X184857500Y-83900000D01*
G37*
G36*
X184857500Y-85460000D02*
G01*
X183862500Y-85460000D01*
X183862500Y-86710000D01*
X184857500Y-86710000D01*
X184857500Y-85460000D01*
G37*
G36*
X185468500Y-84050000D02*
G01*
X185157500Y-84050000D01*
X185157500Y-84300000D01*
X185468500Y-84300000D01*
X185468500Y-84050000D01*
G37*
G36*
X185468500Y-86300000D02*
G01*
X185157500Y-86300000D01*
X185157500Y-86550000D01*
X185468500Y-86550000D01*
X185468500Y-86300000D01*
G37*
D11*
X162548266Y-39542933D03*
X162548266Y-37717933D03*
D12*
X153400000Y-93500000D03*
X151500000Y-93500000D03*
D13*
X156500000Y-108750000D03*
X153550000Y-108750000D03*
D12*
X153400000Y-89600000D03*
X151500000Y-89600000D03*
D14*
X197916000Y-176014000D03*
X197916000Y-175512000D03*
X197916000Y-175010000D03*
X197916000Y-174508000D03*
X197916000Y-174006000D03*
X197916000Y-173504000D03*
X197916000Y-173002000D03*
X197916000Y-172500000D03*
X197916000Y-171998000D03*
X197916000Y-171496000D03*
X197916000Y-170994000D03*
X197916000Y-170492000D03*
X197916000Y-169990000D03*
X197916000Y-169488000D03*
X197916000Y-168986000D03*
X190084000Y-168986000D03*
X190084000Y-169488000D03*
X190084000Y-169990000D03*
X190084000Y-170492000D03*
X190084000Y-170994000D03*
X190084000Y-171496000D03*
X190084000Y-171998000D03*
X190084000Y-172500000D03*
X190084000Y-173002000D03*
X190084000Y-173504000D03*
X190084000Y-174006000D03*
X190084000Y-174508000D03*
X190084000Y-175010000D03*
X190084000Y-175512000D03*
X190084000Y-176014000D03*
D15*
X135640000Y-81000000D03*
X137190000Y-81000000D03*
D16*
X98192500Y-91430000D03*
X98192500Y-93330000D03*
D17*
X180550000Y-77500000D03*
X179000000Y-77500000D03*
D18*
X58400000Y-82750000D03*
X58400000Y-84300000D03*
D13*
X182700000Y-106500000D03*
X179750000Y-106500000D03*
D16*
X46592500Y-91530000D03*
X46592500Y-93430000D03*
D17*
X103300000Y-76690000D03*
X101750000Y-76690000D03*
D19*
X125900000Y-91500000D03*
X127725000Y-91500000D03*
D20*
X51377500Y-87575000D03*
D21*
X51377500Y-87825000D03*
D20*
X51877500Y-87575000D03*
D21*
X51877500Y-87825000D03*
D20*
X52377500Y-87575000D03*
D21*
X52377500Y-87825000D03*
D20*
X52877500Y-87575000D03*
D21*
X52877500Y-87825000D03*
D20*
X53377500Y-87575000D03*
D21*
X53377500Y-87825000D03*
D22*
X55127500Y-87275000D03*
D20*
X56377500Y-87575000D03*
X55877500Y-87575000D03*
X55377500Y-87575000D03*
X54877500Y-87575000D03*
X54377500Y-87575000D03*
X53877500Y-87575000D03*
D21*
X56377500Y-87825000D03*
X55877500Y-87825000D03*
X55377500Y-87825000D03*
X54877500Y-87825000D03*
X54377500Y-87825000D03*
X53877500Y-87825000D03*
X56377500Y-82425000D03*
X55877500Y-82425000D03*
X55377500Y-82425000D03*
X54877500Y-82425000D03*
X54377500Y-82425000D03*
X53877500Y-82425000D03*
D23*
X56377500Y-82675000D03*
X55877500Y-82675000D03*
X55377500Y-82675000D03*
X54877500Y-82675000D03*
X54377500Y-82675000D03*
X53877500Y-82675000D03*
D22*
X55117500Y-82975000D03*
D21*
X53377500Y-82425000D03*
D23*
X53377500Y-82675000D03*
D21*
X52877500Y-82425000D03*
D23*
X52877500Y-82675000D03*
D21*
X52377500Y-82425000D03*
D23*
X52377500Y-82675000D03*
D21*
X51877500Y-82425000D03*
D23*
X51877500Y-82675000D03*
D21*
X51377500Y-82425000D03*
D23*
X51377500Y-82675000D03*
D19*
X151575000Y-91500000D03*
X153400000Y-91500000D03*
D16*
X72492500Y-91430000D03*
X72492500Y-93330000D03*
D24*
X170084000Y-148986000D03*
X170084000Y-149488000D03*
X170084000Y-149990000D03*
X170084000Y-150492000D03*
X170084000Y-150994000D03*
X170084000Y-151496000D03*
X170084000Y-151998000D03*
X170084000Y-152500000D03*
X170084000Y-153002000D03*
X170084000Y-153504000D03*
X170084000Y-154006000D03*
X170084000Y-154508000D03*
X170084000Y-155010000D03*
X170084000Y-155512000D03*
X170084000Y-156014000D03*
X177916000Y-156014000D03*
X177916000Y-155512000D03*
X177916000Y-155010000D03*
X177916000Y-154508000D03*
X177916000Y-154006000D03*
X177916000Y-153504000D03*
X177916000Y-153002000D03*
X177916000Y-152500000D03*
X177916000Y-151998000D03*
X177916000Y-151496000D03*
X177916000Y-150994000D03*
X177916000Y-150492000D03*
X177916000Y-149990000D03*
X177916000Y-149488000D03*
X177916000Y-148986000D03*
D19*
X107744218Y-47931644D03*
X109569218Y-47931644D03*
D25*
X81180000Y-95000000D03*
X81180000Y-102610000D03*
D26*
X60000000Y-56600000D03*
X56875000Y-56600000D03*
D27*
X111916250Y-89500000D03*
X110091250Y-89500000D03*
D17*
X129250000Y-76600000D03*
X127700000Y-76600000D03*
D12*
X179025000Y-89600000D03*
X177125000Y-89600000D03*
D17*
X155410000Y-78200000D03*
X153860000Y-78200000D03*
D12*
X102100000Y-89500000D03*
X100200000Y-89500000D03*
D17*
X180550000Y-76100000D03*
X179000000Y-76100000D03*
D28*
X119959218Y-47401644D03*
X121859218Y-47401644D03*
D15*
X58700000Y-81500000D03*
X60250000Y-81500000D03*
D29*
X108429218Y-42209144D03*
X108429218Y-44034144D03*
D15*
X110200000Y-75240000D03*
X111750000Y-75240000D03*
D30*
X108750000Y-108750000D03*
X111700000Y-108750000D03*
D18*
X109750000Y-82500000D03*
X109750000Y-84050000D03*
D29*
X100816218Y-34530142D03*
X100816218Y-36355142D03*
D17*
X77550000Y-76500000D03*
X76000000Y-76500000D03*
D29*
X116159218Y-37709144D03*
X116159218Y-39534144D03*
D30*
X160250000Y-111000000D03*
X163200000Y-111000000D03*
D31*
X60500000Y-87900000D03*
X60500000Y-86000000D03*
D32*
X67800000Y-69500000D03*
X67800000Y-76000000D03*
D27*
X78862500Y-51490000D03*
X77037500Y-51490000D03*
D17*
X155400000Y-76700000D03*
X153850000Y-76700000D03*
D30*
X160250000Y-106500000D03*
X163200000Y-106500000D03*
D28*
X154400000Y-79900000D03*
X156300000Y-79900000D03*
D17*
X103300000Y-78200000D03*
X101750000Y-78200000D03*
D15*
X110200000Y-79750000D03*
X111750000Y-79750000D03*
D13*
X130750000Y-111000000D03*
X127800000Y-111000000D03*
D14*
X98916000Y-176014000D03*
X98916000Y-175512000D03*
X98916000Y-175010000D03*
X98916000Y-174508000D03*
X98916000Y-174006000D03*
X98916000Y-173504000D03*
X98916000Y-173002000D03*
X98916000Y-172500000D03*
X98916000Y-171998000D03*
X98916000Y-171496000D03*
X98916000Y-170994000D03*
X98916000Y-170492000D03*
X98916000Y-169990000D03*
X98916000Y-169488000D03*
X98916000Y-168986000D03*
X91084000Y-168986000D03*
X91084000Y-169488000D03*
X91084000Y-169990000D03*
X91084000Y-170492000D03*
X91084000Y-170994000D03*
X91084000Y-171496000D03*
X91084000Y-171998000D03*
X91084000Y-172500000D03*
X91084000Y-173002000D03*
X91084000Y-173504000D03*
X91084000Y-174006000D03*
X91084000Y-174508000D03*
X91084000Y-175010000D03*
X91084000Y-175512000D03*
X91084000Y-176014000D03*
D30*
X186550000Y-111000000D03*
X189500000Y-111000000D03*
D11*
X117749218Y-51734144D03*
X117749218Y-49909144D03*
D18*
X83750000Y-82700000D03*
X83750000Y-84250000D03*
D17*
X77550000Y-78000000D03*
X76000000Y-78000000D03*
D28*
X51300000Y-79800000D03*
X53200000Y-79800000D03*
D31*
X112000000Y-87900000D03*
X112000000Y-86000000D03*
X137800000Y-87800000D03*
X137800000Y-85900000D03*
D30*
X160250000Y-108750000D03*
X163200000Y-108750000D03*
D28*
X76800000Y-79800000D03*
X78700000Y-79800000D03*
D11*
X112269218Y-52425000D03*
X112269218Y-50600000D03*
D31*
X112209218Y-39571644D03*
X112209218Y-37671644D03*
D29*
X122169218Y-37699144D03*
X122169218Y-39524144D03*
D12*
X217550000Y-95400000D03*
X215650000Y-95400000D03*
D20*
X154700000Y-87750000D03*
D21*
X154700000Y-88000000D03*
D20*
X155200000Y-87750000D03*
D21*
X155200000Y-88000000D03*
D20*
X155700000Y-87750000D03*
D21*
X155700000Y-88000000D03*
D20*
X156200000Y-87750000D03*
D21*
X156200000Y-88000000D03*
D20*
X156700000Y-87750000D03*
D21*
X156700000Y-88000000D03*
D22*
X158450000Y-87450000D03*
D20*
X159700000Y-87750000D03*
X159200000Y-87750000D03*
X158700000Y-87750000D03*
X158200000Y-87750000D03*
X157700000Y-87750000D03*
X157200000Y-87750000D03*
D21*
X159700000Y-88000000D03*
X159200000Y-88000000D03*
X158700000Y-88000000D03*
X158200000Y-88000000D03*
X157700000Y-88000000D03*
X157200000Y-88000000D03*
X159700000Y-82600000D03*
X159200000Y-82600000D03*
X158700000Y-82600000D03*
X158200000Y-82600000D03*
X157700000Y-82600000D03*
X157200000Y-82600000D03*
D23*
X159700000Y-82850000D03*
X159200000Y-82850000D03*
X158700000Y-82850000D03*
X158200000Y-82850000D03*
X157700000Y-82850000D03*
X157200000Y-82850000D03*
D22*
X158440000Y-83150000D03*
D21*
X156700000Y-82600000D03*
D23*
X156700000Y-82850000D03*
D21*
X156200000Y-82600000D03*
D23*
X156200000Y-82850000D03*
D21*
X155700000Y-82600000D03*
D23*
X155700000Y-82850000D03*
D21*
X155200000Y-82600000D03*
D23*
X155200000Y-82850000D03*
D21*
X154700000Y-82600000D03*
D23*
X154700000Y-82850000D03*
D17*
X53550000Y-78010000D03*
X52000000Y-78010000D03*
D15*
X161350000Y-77000000D03*
X162900000Y-77000000D03*
D31*
X208890000Y-95090000D03*
X208890000Y-93190000D03*
D13*
X79250000Y-108750000D03*
X76300000Y-108750000D03*
D33*
X193767500Y-39650000D03*
X190467500Y-39650000D03*
D11*
X219570000Y-90842500D03*
X219570000Y-89017500D03*
D12*
X217550000Y-88680000D03*
X215650000Y-88680000D03*
D30*
X108800000Y-111000000D03*
X111750000Y-111000000D03*
D17*
X53550000Y-76500000D03*
X52000000Y-76500000D03*
D28*
X100289218Y-43451644D03*
X102189218Y-43451644D03*
D12*
X50400000Y-89600000D03*
X48500000Y-89600000D03*
D15*
X58700000Y-77000000D03*
X60250000Y-77000000D03*
D18*
X161400000Y-82850000D03*
X161400000Y-84400000D03*
D12*
X213920000Y-88680000D03*
X212020000Y-88680000D03*
D16*
X123892500Y-91530000D03*
X123892500Y-93430000D03*
D25*
X55500000Y-95000000D03*
X55500000Y-102610000D03*
D27*
X60300000Y-89500000D03*
X58475000Y-89500000D03*
D28*
X128300000Y-79900000D03*
X130200000Y-79900000D03*
D16*
X208890000Y-89220000D03*
X208890000Y-91120000D03*
D27*
X189525000Y-89600000D03*
X187700000Y-89600000D03*
D12*
X75200000Y-81300000D03*
X73300000Y-81300000D03*
D15*
X110200000Y-78250000D03*
X111750000Y-78250000D03*
X135690000Y-78000000D03*
X137240000Y-78000000D03*
D34*
X105638718Y-40022642D03*
X105638718Y-39522642D03*
X105638718Y-39022642D03*
X105638718Y-38522642D03*
X105638718Y-38022642D03*
X101413718Y-38022642D03*
X101413718Y-38522642D03*
X101413718Y-39022642D03*
X101413718Y-39522642D03*
X101413718Y-40022642D03*
D30*
X108750000Y-106500000D03*
X111700000Y-106500000D03*
D20*
X76997500Y-87450000D03*
D21*
X76997500Y-87700000D03*
D20*
X77497500Y-87450000D03*
D21*
X77497500Y-87700000D03*
D20*
X77997500Y-87450000D03*
D21*
X77997500Y-87700000D03*
D20*
X78497500Y-87450000D03*
D21*
X78497500Y-87700000D03*
D20*
X78997500Y-87450000D03*
D21*
X78997500Y-87700000D03*
D22*
X80747500Y-87150000D03*
D20*
X81997500Y-87450000D03*
X81497500Y-87450000D03*
X80997500Y-87450000D03*
X80497500Y-87450000D03*
X79997500Y-87450000D03*
X79497500Y-87450000D03*
D21*
X81997500Y-87700000D03*
X81497500Y-87700000D03*
X80997500Y-87700000D03*
X80497500Y-87700000D03*
X79997500Y-87700000D03*
X79497500Y-87700000D03*
X81997500Y-82300000D03*
X81497500Y-82300000D03*
X80997500Y-82300000D03*
X80497500Y-82300000D03*
X79997500Y-82300000D03*
X79497500Y-82300000D03*
D23*
X81997500Y-82550000D03*
X81497500Y-82550000D03*
X80997500Y-82550000D03*
X80497500Y-82550000D03*
X79997500Y-82550000D03*
X79497500Y-82550000D03*
D22*
X80737500Y-82850000D03*
D21*
X78997500Y-82300000D03*
D23*
X78997500Y-82550000D03*
D21*
X78497500Y-82300000D03*
D23*
X78497500Y-82550000D03*
D21*
X77997500Y-82300000D03*
D23*
X77997500Y-82550000D03*
D21*
X77497500Y-82300000D03*
D23*
X77497500Y-82550000D03*
D21*
X76997500Y-82300000D03*
D23*
X76997500Y-82550000D03*
D18*
X186800000Y-82800000D03*
X186800000Y-84350000D03*
D28*
X104506218Y-36142642D03*
X106406218Y-36142642D03*
D12*
X102159218Y-50291644D03*
X100259218Y-50291644D03*
D15*
X161350000Y-78480000D03*
X162900000Y-78480000D03*
D17*
X129250000Y-78100000D03*
X127700000Y-78100000D03*
D26*
X60000000Y-60300000D03*
X56875000Y-60300000D03*
D15*
X186950000Y-81380000D03*
X188500000Y-81380000D03*
D13*
X182700000Y-108750000D03*
X179750000Y-108750000D03*
X130750000Y-108750000D03*
X127800000Y-108750000D03*
X105000000Y-111000000D03*
X102050000Y-111000000D03*
D30*
X134550000Y-106500000D03*
X137500000Y-106500000D03*
D13*
X53650000Y-111000000D03*
X50700000Y-111000000D03*
D15*
X110200000Y-81250000D03*
X111750000Y-81250000D03*
D29*
X120209218Y-37699144D03*
X120209218Y-39524144D03*
D31*
X163300000Y-88000000D03*
X163300000Y-86100000D03*
D27*
X82612500Y-51490000D03*
X80787500Y-51490000D03*
D12*
X102082500Y-93370000D03*
X100182500Y-93370000D03*
D18*
X135500000Y-82500000D03*
X135500000Y-84050000D03*
D30*
X134500000Y-111000000D03*
X137450000Y-111000000D03*
D15*
X58700000Y-80050000D03*
X60250000Y-80050000D03*
D30*
X89875000Y-48040000D03*
X92825000Y-48040000D03*
D16*
X84510000Y-54390000D03*
X84510000Y-56290000D03*
D32*
X93750000Y-69500000D03*
X93750000Y-76000000D03*
D15*
X161350000Y-75600000D03*
X162900000Y-75600000D03*
D25*
X132700000Y-95400000D03*
X132700000Y-103010000D03*
D16*
X110309218Y-49771644D03*
X110309218Y-51671644D03*
D28*
X179800000Y-79900000D03*
X181700000Y-79900000D03*
D29*
X193000000Y-54375000D03*
X193000000Y-56200000D03*
D12*
X179025000Y-93400000D03*
X177125000Y-93400000D03*
D30*
X83050000Y-108750000D03*
X86000000Y-108750000D03*
D35*
X69600000Y-57100000D03*
X69600000Y-60200000D03*
D15*
X135690000Y-76500000D03*
X137240000Y-76500000D03*
X161350000Y-80000000D03*
X162900000Y-80000000D03*
D13*
X182700000Y-111000000D03*
X179750000Y-111000000D03*
D36*
X217462500Y-90972500D03*
X216512500Y-90972500D03*
X215562500Y-90972500D03*
X215562500Y-93247500D03*
X217462500Y-93247500D03*
D12*
X178500000Y-81800000D03*
X176600000Y-81800000D03*
D28*
X102400000Y-79900000D03*
X104300000Y-79900000D03*
D37*
X61100000Y-52700000D03*
X56800000Y-52700000D03*
D29*
X118109218Y-37709144D03*
X118109218Y-39534144D03*
D12*
X213920000Y-95400000D03*
X212020000Y-95400000D03*
D18*
X116009218Y-50600000D03*
X116009218Y-52150000D03*
D38*
X206650000Y-89160000D03*
X206000000Y-89160000D03*
X205350000Y-89160000D03*
X204700000Y-89160000D03*
X204050000Y-89160000D03*
X203400000Y-89160000D03*
X202750000Y-89160000D03*
X202750000Y-95060000D03*
X203400000Y-95060000D03*
X204050000Y-95060000D03*
X204700000Y-95060000D03*
X205350000Y-95060000D03*
X206000000Y-95060000D03*
X206650000Y-95060000D03*
D35*
X62900000Y-57100000D03*
X62900000Y-60200000D03*
D39*
X112381718Y-46979144D03*
D40*
X113169218Y-46979144D03*
X114169218Y-46979144D03*
X115169218Y-46979144D03*
D41*
X115956718Y-46979144D03*
D42*
X112381718Y-46191644D03*
D43*
X113169218Y-46191644D03*
X114169218Y-46191644D03*
X115169218Y-46191644D03*
D44*
X115956718Y-46191644D03*
D42*
X112381718Y-45191644D03*
D43*
X113169218Y-45191644D03*
X114169218Y-45191644D03*
X115169218Y-45191644D03*
D44*
X115956718Y-45191644D03*
D42*
X112381718Y-44191644D03*
D43*
X113169218Y-44191644D03*
X114169218Y-44191644D03*
X115169218Y-44191644D03*
D44*
X115956718Y-44191644D03*
D45*
X112381718Y-43404144D03*
D46*
X113169218Y-43404144D03*
X114169218Y-43404144D03*
X115169218Y-43404144D03*
D47*
X115956718Y-43404144D03*
D48*
X111919218Y-48129144D03*
X112419218Y-48129144D03*
X112919218Y-48129144D03*
X113419218Y-48129144D03*
X113919218Y-48129144D03*
X114419218Y-48129144D03*
X114919218Y-48129144D03*
X115419218Y-48129144D03*
X115919218Y-48129144D03*
X116419218Y-48129144D03*
D49*
X117106718Y-47441644D03*
X117106718Y-46941644D03*
X117106718Y-46441644D03*
X117106718Y-45941644D03*
X117106718Y-45441644D03*
X117106718Y-44941644D03*
X117106718Y-44441644D03*
X117106718Y-43941644D03*
X117106718Y-43441644D03*
X117106718Y-42941644D03*
D48*
X116419218Y-42254144D03*
X115919218Y-42254144D03*
X115419218Y-42254144D03*
X114919218Y-42254144D03*
X114419218Y-42254144D03*
X113919218Y-42254144D03*
X113419218Y-42254144D03*
X112919218Y-42254144D03*
X112419218Y-42254144D03*
X111919218Y-42254144D03*
D49*
X111231718Y-42941644D03*
X111231718Y-43441644D03*
X111231718Y-43941644D03*
X111231718Y-44441644D03*
X111231718Y-44941644D03*
X111231718Y-45441644D03*
X111231718Y-45941644D03*
X111231718Y-46441644D03*
X111231718Y-46941644D03*
X111231718Y-47441644D03*
D30*
X57250000Y-111050000D03*
X60200000Y-111050000D03*
D28*
X119959218Y-45391644D03*
X121859218Y-45391644D03*
D14*
X78916000Y-176014000D03*
X78916000Y-175512000D03*
X78916000Y-175010000D03*
X78916000Y-174508000D03*
X78916000Y-174006000D03*
X78916000Y-173504000D03*
X78916000Y-173002000D03*
X78916000Y-172500000D03*
X78916000Y-171998000D03*
X78916000Y-171496000D03*
X78916000Y-170994000D03*
X78916000Y-170492000D03*
X78916000Y-169990000D03*
X78916000Y-169488000D03*
X78916000Y-168986000D03*
X71084000Y-168986000D03*
X71084000Y-169488000D03*
X71084000Y-169990000D03*
X71084000Y-170492000D03*
X71084000Y-170994000D03*
X71084000Y-171496000D03*
X71084000Y-171998000D03*
X71084000Y-172500000D03*
X71084000Y-173002000D03*
X71084000Y-173504000D03*
X71084000Y-174006000D03*
X71084000Y-174508000D03*
X71084000Y-175010000D03*
X71084000Y-175512000D03*
X71084000Y-176014000D03*
D20*
X102700000Y-87750000D03*
D21*
X102700000Y-88000000D03*
D20*
X103200000Y-87750000D03*
D21*
X103200000Y-88000000D03*
D20*
X103700000Y-87750000D03*
D21*
X103700000Y-88000000D03*
D20*
X104200000Y-87750000D03*
D21*
X104200000Y-88000000D03*
D20*
X104700000Y-87750000D03*
D21*
X104700000Y-88000000D03*
D22*
X106450000Y-87450000D03*
D20*
X107700000Y-87750000D03*
X107200000Y-87750000D03*
X106700000Y-87750000D03*
X106200000Y-87750000D03*
X105700000Y-87750000D03*
X105200000Y-87750000D03*
D21*
X107700000Y-88000000D03*
X107200000Y-88000000D03*
X106700000Y-88000000D03*
X106200000Y-88000000D03*
X105700000Y-88000000D03*
X105200000Y-88000000D03*
X107700000Y-82600000D03*
X107200000Y-82600000D03*
X106700000Y-82600000D03*
X106200000Y-82600000D03*
X105700000Y-82600000D03*
X105200000Y-82600000D03*
D23*
X107700000Y-82850000D03*
X107200000Y-82850000D03*
X106700000Y-82850000D03*
X106200000Y-82850000D03*
X105700000Y-82850000D03*
X105200000Y-82850000D03*
D22*
X106440000Y-83150000D03*
D21*
X104700000Y-82600000D03*
D23*
X104700000Y-82850000D03*
D21*
X104200000Y-82600000D03*
D23*
X104200000Y-82850000D03*
D21*
X103700000Y-82600000D03*
D23*
X103700000Y-82850000D03*
D21*
X103200000Y-82600000D03*
D23*
X103200000Y-82850000D03*
D21*
X102700000Y-82600000D03*
D23*
X102700000Y-82850000D03*
D28*
X119959218Y-51361644D03*
X121859218Y-51361644D03*
D30*
X57300000Y-106500000D03*
X60250000Y-106500000D03*
X57300000Y-108800000D03*
X60250000Y-108800000D03*
D24*
X71084000Y-148986000D03*
X71084000Y-149488000D03*
X71084000Y-149990000D03*
X71084000Y-150492000D03*
X71084000Y-150994000D03*
X71084000Y-151496000D03*
X71084000Y-151998000D03*
X71084000Y-152500000D03*
X71084000Y-153002000D03*
X71084000Y-153504000D03*
X71084000Y-154006000D03*
X71084000Y-154508000D03*
X71084000Y-155010000D03*
X71084000Y-155512000D03*
X71084000Y-156014000D03*
X78916000Y-156014000D03*
X78916000Y-155512000D03*
X78916000Y-155010000D03*
X78916000Y-154508000D03*
X78916000Y-154006000D03*
X78916000Y-153504000D03*
X78916000Y-153002000D03*
X78916000Y-152500000D03*
X78916000Y-151998000D03*
X78916000Y-151496000D03*
X78916000Y-150994000D03*
X78916000Y-150492000D03*
X78916000Y-149990000D03*
X78916000Y-149488000D03*
X78916000Y-148986000D03*
D13*
X53650000Y-108750000D03*
X50700000Y-108750000D03*
D35*
X66300000Y-57100000D03*
X66300000Y-60200000D03*
D25*
X106900000Y-95200000D03*
X106900000Y-102810000D03*
D30*
X83050000Y-111000000D03*
X86000000Y-111000000D03*
D13*
X79200000Y-106500000D03*
X76250000Y-106500000D03*
D16*
X175125000Y-91500000D03*
X175125000Y-93400000D03*
D19*
X177200000Y-91500000D03*
X179025000Y-91500000D03*
D32*
X119150000Y-69500000D03*
X119150000Y-76000000D03*
D13*
X156450000Y-111000000D03*
X153500000Y-111000000D03*
D19*
X100200000Y-91400000D03*
X102025000Y-91400000D03*
D15*
X58700000Y-78600000D03*
X60250000Y-78600000D03*
D11*
X108329218Y-51624144D03*
X108329218Y-49799144D03*
D30*
X186550000Y-108750000D03*
X189500000Y-108750000D03*
D15*
X135700000Y-75010000D03*
X137250000Y-75010000D03*
D17*
X59950000Y-62700000D03*
X58400000Y-62700000D03*
D25*
X158300000Y-95400000D03*
X158300000Y-103010000D03*
D50*
X88580000Y-56030000D03*
X88580000Y-52430000D03*
D25*
X184600000Y-95400000D03*
X184600000Y-103010000D03*
D51*
X184740000Y-163000000D03*
X184740000Y-162500000D03*
X184740000Y-162000000D03*
X183260000Y-162000000D03*
X183260000Y-162500000D03*
X183260000Y-163000000D03*
D12*
X121859218Y-41401644D03*
X119959218Y-41401644D03*
D27*
X137700000Y-89600000D03*
X135875000Y-89600000D03*
D15*
X58700000Y-75500000D03*
X60250000Y-75500000D03*
D13*
X79200000Y-111000000D03*
X76250000Y-111000000D03*
D36*
X81840000Y-54432500D03*
X80890000Y-54432500D03*
X79940000Y-54432500D03*
X79940000Y-56707500D03*
X80890000Y-56707500D03*
X81840000Y-56707500D03*
D13*
X53700000Y-106500000D03*
X50750000Y-106500000D03*
D27*
X86100000Y-89600000D03*
X84275000Y-89600000D03*
D16*
X149500000Y-91600000D03*
X149500000Y-93500000D03*
D20*
X128500000Y-87550000D03*
D21*
X128500000Y-87800000D03*
D20*
X129000000Y-87550000D03*
D21*
X129000000Y-87800000D03*
D20*
X129500000Y-87550000D03*
D21*
X129500000Y-87800000D03*
D20*
X130000000Y-87550000D03*
D21*
X130000000Y-87800000D03*
D20*
X130500000Y-87550000D03*
D21*
X130500000Y-87800000D03*
D22*
X132250000Y-87250000D03*
D20*
X133500000Y-87550000D03*
X133000000Y-87550000D03*
X132500000Y-87550000D03*
X132000000Y-87550000D03*
X131500000Y-87550000D03*
X131000000Y-87550000D03*
D21*
X133500000Y-87800000D03*
X133000000Y-87800000D03*
X132500000Y-87800000D03*
X132000000Y-87800000D03*
X131500000Y-87800000D03*
X131000000Y-87800000D03*
X133500000Y-82400000D03*
X133000000Y-82400000D03*
X132500000Y-82400000D03*
X132000000Y-82400000D03*
X131500000Y-82400000D03*
X131000000Y-82400000D03*
D23*
X133500000Y-82650000D03*
X133000000Y-82650000D03*
X132500000Y-82650000D03*
X132000000Y-82650000D03*
X131500000Y-82650000D03*
X131000000Y-82650000D03*
D22*
X132240000Y-82950000D03*
D21*
X130500000Y-82400000D03*
D23*
X130500000Y-82650000D03*
D21*
X130000000Y-82400000D03*
D23*
X130000000Y-82650000D03*
D21*
X129500000Y-82400000D03*
D23*
X129500000Y-82650000D03*
D21*
X129000000Y-82400000D03*
D23*
X129000000Y-82650000D03*
D21*
X128500000Y-82400000D03*
D23*
X128500000Y-82650000D03*
D11*
X106359218Y-44054144D03*
X106359218Y-42229144D03*
D24*
X91084000Y-148986000D03*
X91084000Y-149488000D03*
X91084000Y-149990000D03*
X91084000Y-150492000D03*
X91084000Y-150994000D03*
X91084000Y-151496000D03*
X91084000Y-151998000D03*
X91084000Y-152500000D03*
X91084000Y-153002000D03*
X91084000Y-153504000D03*
X91084000Y-154006000D03*
X91084000Y-154508000D03*
X91084000Y-155010000D03*
X91084000Y-155512000D03*
X91084000Y-156014000D03*
X98916000Y-156014000D03*
X98916000Y-155512000D03*
X98916000Y-155010000D03*
X98916000Y-154508000D03*
X98916000Y-154006000D03*
X98916000Y-153504000D03*
X98916000Y-153002000D03*
X98916000Y-152500000D03*
X98916000Y-151998000D03*
X98916000Y-151496000D03*
X98916000Y-150994000D03*
X98916000Y-150492000D03*
X98916000Y-149990000D03*
X98916000Y-149488000D03*
X98916000Y-148986000D03*
D15*
X186950000Y-78480000D03*
X188500000Y-78480000D03*
D11*
X114219218Y-39534144D03*
X114219218Y-37709144D03*
D30*
X83050000Y-106500000D03*
X86000000Y-106500000D03*
D52*
X84260000Y-162000000D03*
X84260000Y-162500000D03*
X84260000Y-163000000D03*
X85740000Y-163000000D03*
X85740000Y-162500000D03*
X85740000Y-162000000D03*
D27*
X163325000Y-89600000D03*
X161500000Y-89600000D03*
D19*
X48600000Y-91500000D03*
X50425000Y-91500000D03*
D30*
X186650000Y-106500000D03*
X189600000Y-106500000D03*
D32*
X144350000Y-69250000D03*
X144350000Y-75750000D03*
D36*
X213832500Y-90972500D03*
X212882500Y-90972500D03*
X211932500Y-90972500D03*
X211932500Y-93247500D03*
X213832500Y-93247500D03*
D15*
X110200000Y-76750000D03*
X111750000Y-76750000D03*
D12*
X80550000Y-58720000D03*
X78650000Y-58720000D03*
D15*
X186950000Y-77080000D03*
X188500000Y-77080000D03*
X161350000Y-81500000D03*
X162900000Y-81500000D03*
D13*
X105000000Y-106500000D03*
X102050000Y-106500000D03*
D12*
X50482500Y-93470000D03*
X48582500Y-93470000D03*
D13*
X105000000Y-108750000D03*
X102050000Y-108750000D03*
D15*
X84200000Y-75500000D03*
X85750000Y-75500000D03*
D53*
X100449218Y-48424144D03*
X100949218Y-48424144D03*
X101449218Y-48424144D03*
X101949218Y-48424144D03*
X101949218Y-45324144D03*
X101449218Y-45324144D03*
X100949218Y-45324144D03*
X100449218Y-45324144D03*
D13*
X130750000Y-106500000D03*
X127800000Y-106500000D03*
D12*
X127782500Y-93470000D03*
X125882500Y-93470000D03*
X49800000Y-81500000D03*
X47900000Y-81500000D03*
D19*
X82175000Y-58700000D03*
X84000000Y-58700000D03*
D12*
X76200000Y-93200000D03*
X74300000Y-93200000D03*
D15*
X84200000Y-78500000D03*
X85750000Y-78500000D03*
D13*
X156500000Y-106500000D03*
X153550000Y-106500000D03*
D29*
X102756218Y-34530142D03*
X102756218Y-36355142D03*
D15*
X135700000Y-79500000D03*
X137250000Y-79500000D03*
D31*
X189700000Y-88100000D03*
X189700000Y-86200000D03*
D12*
X121859218Y-43401644D03*
X119959218Y-43401644D03*
D15*
X84200000Y-80000000D03*
X85750000Y-80000000D03*
D12*
X152900000Y-81900000D03*
X151000000Y-81900000D03*
X76300000Y-89500000D03*
X74400000Y-89500000D03*
D29*
X165100000Y-37675000D03*
X165100000Y-39500000D03*
X195800000Y-37875000D03*
X195800000Y-39700000D03*
D19*
X74400000Y-91400000D03*
X76225000Y-91400000D03*
D12*
X101000000Y-81500000D03*
X99100000Y-81500000D03*
D15*
X84200000Y-77000000D03*
X85750000Y-77000000D03*
D54*
X93090000Y-56077500D03*
X93090000Y-51677500D03*
D15*
X84200000Y-81500000D03*
X85750000Y-81500000D03*
D16*
X114249218Y-50600000D03*
X114249218Y-52500000D03*
D31*
X86300000Y-88000000D03*
X86300000Y-86100000D03*
D15*
X186950000Y-75700000D03*
X188500000Y-75700000D03*
D14*
X177916000Y-176014000D03*
X177916000Y-175512000D03*
X177916000Y-175010000D03*
X177916000Y-174508000D03*
X177916000Y-174006000D03*
X177916000Y-173504000D03*
X177916000Y-173002000D03*
X177916000Y-172500000D03*
X177916000Y-171998000D03*
X177916000Y-171496000D03*
X177916000Y-170994000D03*
X177916000Y-170492000D03*
X177916000Y-169990000D03*
X177916000Y-169488000D03*
X177916000Y-168986000D03*
X170084000Y-168986000D03*
X170084000Y-169488000D03*
X170084000Y-169990000D03*
X170084000Y-170492000D03*
X170084000Y-170994000D03*
X170084000Y-171496000D03*
X170084000Y-171998000D03*
X170084000Y-172500000D03*
X170084000Y-173002000D03*
X170084000Y-173504000D03*
X170084000Y-174006000D03*
X170084000Y-174508000D03*
X170084000Y-175010000D03*
X170084000Y-175512000D03*
X170084000Y-176014000D03*
D27*
X121824218Y-49381644D03*
X119999218Y-49381644D03*
D12*
X127800000Y-89600000D03*
X125900000Y-89600000D03*
D30*
X134550000Y-108750000D03*
X137500000Y-108750000D03*
D24*
X190084000Y-148986000D03*
X190084000Y-149488000D03*
X190084000Y-149990000D03*
X190084000Y-150492000D03*
X190084000Y-150994000D03*
X190084000Y-151496000D03*
X190084000Y-151998000D03*
X190084000Y-152500000D03*
X190084000Y-153002000D03*
X190084000Y-153504000D03*
X190084000Y-154006000D03*
X190084000Y-154508000D03*
X190084000Y-155010000D03*
X190084000Y-155512000D03*
X190084000Y-156014000D03*
X197916000Y-156014000D03*
X197916000Y-155512000D03*
X197916000Y-155010000D03*
X197916000Y-154508000D03*
X197916000Y-154006000D03*
X197916000Y-153504000D03*
X197916000Y-153002000D03*
X197916000Y-152500000D03*
X197916000Y-151998000D03*
X197916000Y-151496000D03*
X197916000Y-150994000D03*
X197916000Y-150492000D03*
X197916000Y-149990000D03*
X197916000Y-149488000D03*
X197916000Y-148986000D03*
D12*
X126400000Y-81800000D03*
X124500000Y-81800000D03*
D15*
X186950000Y-79900000D03*
X188500000Y-79900000D03*
D20*
X179917500Y-87750000D03*
D21*
X179917500Y-88000000D03*
D20*
X180417500Y-87750000D03*
D21*
X180417500Y-88000000D03*
D20*
X180917500Y-87750000D03*
D21*
X180917500Y-88000000D03*
D20*
X181417500Y-87750000D03*
D21*
X181417500Y-88000000D03*
D20*
X181917500Y-87750000D03*
D21*
X181917500Y-88000000D03*
D22*
X183667500Y-87450000D03*
D20*
X184917500Y-87750000D03*
X184417500Y-87750000D03*
X183917500Y-87750000D03*
X183417500Y-87750000D03*
X182917500Y-87750000D03*
X182417500Y-87750000D03*
D21*
X184917500Y-88000000D03*
X184417500Y-88000000D03*
X183917500Y-88000000D03*
X183417500Y-88000000D03*
X182917500Y-88000000D03*
X182417500Y-88000000D03*
X184917500Y-82600000D03*
X184417500Y-82600000D03*
X183917500Y-82600000D03*
X183417500Y-82600000D03*
X182917500Y-82600000D03*
X182417500Y-82600000D03*
D23*
X184917500Y-82850000D03*
X184417500Y-82850000D03*
X183917500Y-82850000D03*
X183417500Y-82850000D03*
X182917500Y-82850000D03*
X182417500Y-82850000D03*
D22*
X183657500Y-83150000D03*
D21*
X181917500Y-82600000D03*
D23*
X181917500Y-82850000D03*
D21*
X181417500Y-82600000D03*
D23*
X181417500Y-82850000D03*
D21*
X180917500Y-82600000D03*
D23*
X180917500Y-82850000D03*
D21*
X180417500Y-82600000D03*
D23*
X180417500Y-82850000D03*
D21*
X179917500Y-82600000D03*
D23*
X179917500Y-82850000D03*
M02*
