M48
; DRILL file {KiCad 9.0.3-rc1} date 2025-10-23T15:46:01+0200
; FORMAT={-:-/ absolute / metric / decimal}
; #@! TF.CreationDate,2025-10-23T15:46:01+02:00
; #@! TF.GenerationSoftware,Kicad,Pcbnew,9.0.3-rc1
; #@! TF.FileFunction,Plated,1,6,PTH
FMAT,2
METRIC
; #@! TA.AperFunction,Plated,PTH,ViaDrill
T1C0.350
; #@! TA.AperFunction,Plated,PTH,ComponentDrill
T2C0.350
; #@! TA.AperFunction,Plated,PTH,ViaDrill
T3C0.400
; #@! TA.AperFunction,Plated,PTH,ViaDrill
T4C0.500
; #@! TA.AperFunction,Plated,PTH,ViaDrill
T5C0.600
; #@! TA.AperFunction,Plated,PTH,ComponentDrill
T6C0.600
; #@! TA.AperFunction,Plated,PTH,ComponentDrill
T7C0.650
; #@! TA.AperFunction,Plated,PTH,ViaDrill
T8C0.700
; #@! TA.AperFunction,Plated,PTH,ViaDrill
T9C0.800
; #@! TA.AperFunction,Plated,PTH,ComponentDrill
T10C1.000
; #@! TA.AperFunction,Plated,PTH,ComponentDrill
T11C1.020
; #@! TA.AperFunction,Plated,PTH,ComponentDrill
T12C1.600
; #@! TA.AperFunction,Plated,PTH,ComponentDrill
T13C2.700
; #@! TA.AperFunction,Plated,PTH,ComponentDrill
T14C3.200
%
G90
G05
T1
X69.898Y-174.56
X69.901Y-175.311
X69.92Y-172.82
X69.926Y-176.174
X69.926Y-177.165
X69.952Y-147.853
X69.952Y-148.917
X69.952Y-149.667
X69.952Y-150.417
X79.88Y-152.03
X79.934Y-147.98
X79.934Y-148.917
X79.934Y-149.667
X79.934Y-150.417
X80.035Y-174.583
X80.035Y-175.333
X80.035Y-176.083
X80.035Y-177.14
X83.0Y-161.7
X83.0Y-162.45
X90.018Y-174.583
X90.018Y-175.336
X90.018Y-177.14
X90.043Y-147.93
X90.043Y-148.917
X90.043Y-149.667
X90.043Y-150.417
X90.045Y-176.086
X90.2Y-172.97
X99.82Y-151.99
X99.895Y-149.99
X99.898Y-148.006
X99.898Y-149.2
X100.09Y-174.583
X100.101Y-176.083
X100.101Y-177.19
X100.104Y-175.333
X107.1Y-47.9
X107.64Y-46.0
X108.69Y-45.74
X109.32Y-45.22
X109.7Y-44.5
X109.815Y-43.698
X110.023Y-42.915
X112.338Y-49.677
X113.1Y-49.6
X113.469Y-41.322
X113.8Y-49.4
X114.5Y-49.69
X114.579Y-41.252
X115.1Y-49.3
X116.095Y-49.532
X117.77Y-48.23
X117.917Y-48.873
X152.9Y-88.1
X168.78Y-175.23
X168.94Y-176.12
X168.96Y-174.54
X168.961Y-177.114
X169.11Y-150.51
X169.3Y-172.97
X178.89Y-150.45
X178.93Y-151.97
X179.05Y-174.67
X179.095Y-177.19
X179.1Y-176.39
X179.12Y-175.5
X185.9Y-162.8
X186.75Y-162.8
X188.87Y-174.56
X188.9Y-147.904
X188.9Y-148.917
X188.9Y-149.667
X188.9Y-150.417
X189.024Y-175.24
X189.028Y-175.99
X189.052Y-177.046
X189.26Y-172.97
X198.96Y-152.11
X198.98Y-174.54
X198.983Y-175.99
X198.983Y-149.668
X198.984Y-147.803
X198.984Y-148.692
X198.984Y-177.165
X198.987Y-150.418
X199.15Y-175.26
T2
X51.38Y-85.112
X52.377Y-84.125
X52.377Y-85.125
X52.379Y-86.137
X53.363Y-86.123
X53.377Y-84.125
X53.377Y-85.125
X54.377Y-84.125
X54.377Y-85.125
X54.377Y-86.125
X55.377Y-84.125
X55.377Y-85.125
X55.377Y-86.125
X56.377Y-85.125
X77.0Y-84.987
X77.998Y-84.0
X77.998Y-85.0
X77.999Y-86.012
X78.983Y-85.998
X78.998Y-84.0
X78.998Y-85.0
X79.998Y-84.0
X79.998Y-85.0
X79.998Y-86.0
X80.998Y-84.0
X80.998Y-85.0
X80.998Y-86.0
X81.998Y-85.0
X102.703Y-85.287
X103.7Y-84.3
X103.7Y-85.3
X103.701Y-86.312
X104.686Y-86.298
X104.7Y-84.3
X104.7Y-85.3
X105.7Y-84.3
X105.7Y-85.3
X105.7Y-86.3
X106.7Y-84.3
X106.7Y-85.3
X106.7Y-86.3
X107.7Y-85.3
X112.669Y-43.692
X112.669Y-44.692
X112.669Y-45.692
X112.669Y-46.692
X113.669Y-43.692
X113.669Y-44.692
X113.669Y-45.692
X113.669Y-46.692
X114.669Y-43.692
X114.669Y-44.692
X114.669Y-45.692
X114.669Y-46.692
X115.669Y-43.692
X115.669Y-44.692
X115.669Y-45.692
X115.669Y-46.692
X128.503Y-85.087
X129.5Y-84.1
X129.5Y-85.1
X129.501Y-86.112
X130.486Y-86.098
X130.5Y-84.1
X130.5Y-85.1
X131.5Y-84.1
X131.5Y-85.1
X131.5Y-86.1
X132.5Y-84.1
X132.5Y-85.1
X132.5Y-86.1
X133.5Y-85.1
X154.703Y-85.287
X155.7Y-84.3
X155.7Y-85.3
X155.701Y-86.312
X156.686Y-86.298
X156.7Y-84.3
X156.7Y-85.3
X157.7Y-84.3
X157.7Y-85.3
X157.7Y-86.3
X158.7Y-84.3
X158.7Y-85.3
X158.7Y-86.3
X159.7Y-85.3
X179.92Y-85.287
X180.917Y-84.3
X180.917Y-85.3
X180.919Y-86.312
X181.903Y-86.298
X181.917Y-84.3
X181.917Y-85.3
X182.917Y-84.3
X182.917Y-85.3
X182.917Y-86.3
X183.917Y-84.3
X183.917Y-85.3
X183.917Y-86.3
X184.917Y-85.3
T3
X44.8Y-78.8
X46.1Y-94.6
X46.8Y-80.8
X46.8Y-81.55
X46.8Y-82.3
X46.85Y-94.6
X47.6Y-89.15
X47.6Y-89.9
X47.6Y-94.6
X48.705Y-49.895
X50.0Y-102.0
X50.0Y-103.25
X50.0Y-104.5
X50.0Y-105.75
X50.0Y-107.0
X50.0Y-109.25
X50.0Y-110.25
X50.0Y-111.5
X50.017Y-107.973
X50.705Y-49.92
X51.1Y-76.5
X51.1Y-77.25
X51.1Y-78.0
X51.4Y-81.1
X51.877Y-89.152
X52.207Y-81.537
X52.25Y-106.25
X52.25Y-107.75
X52.25Y-109.25
X52.25Y-110.75
X52.68Y-49.895
X53.8Y-89.7
X54.4Y-88.9
X54.5Y-93.85
X54.5Y-95.1
X54.5Y-96.1
X54.5Y-101.5
X54.5Y-102.75
X54.5Y-103.75
X54.9Y-89.7
X55.0Y-51.85
X55.0Y-52.6
X55.0Y-53.4
X55.1Y-76.1
X55.1Y-78.1
X55.1Y-80.1
X55.4Y-88.9
X55.5Y-93.85
X55.5Y-95.1
X55.5Y-96.1
X55.5Y-101.5
X55.5Y-102.75
X55.5Y-103.75
X55.5Y-106.25
X55.5Y-107.75
X55.5Y-109.25
X55.5Y-110.75
X55.7Y-55.85
X55.7Y-56.6
X55.7Y-57.4
X55.7Y-59.55
X55.7Y-60.3
X55.7Y-61.1
X55.9Y-89.7
X56.4Y-88.9
X56.5Y-93.85
X56.5Y-95.1
X56.5Y-96.1
X56.5Y-101.5
X56.5Y-102.75
X56.5Y-103.75
X56.9Y-89.7
X57.1Y-76.1
X57.1Y-78.1
X57.1Y-80.1
X57.4Y-87.9
X57.4Y-88.9
X58.0Y-55.85
X58.0Y-56.6
X58.0Y-57.4
X58.0Y-59.55
X58.0Y-60.3
X58.0Y-61.1
X58.5Y-51.85
X58.5Y-52.6
X58.5Y-53.4
X58.75Y-106.25
X58.75Y-107.75
X58.75Y-109.25
X58.75Y-110.75
X61.0Y-102.25
X61.0Y-103.5
X61.0Y-104.75
X61.0Y-106.0
X61.0Y-107.25
X61.0Y-109.5
X61.0Y-110.5
X61.0Y-111.75
X61.017Y-108.223
X61.2Y-75.4
X61.2Y-76.15
X61.2Y-76.9
X61.2Y-77.7
X61.2Y-78.45
X61.2Y-79.2
X61.2Y-80.0
X61.2Y-80.75
X61.2Y-81.5
X61.9Y-75.7
X61.9Y-76.45
X61.9Y-77.25
X61.9Y-78.0
X61.9Y-78.75
X61.9Y-79.55
X61.9Y-80.3
X61.9Y-81.05
X62.1Y-59.1
X62.1Y-61.2
X62.85Y-59.1
X62.85Y-61.2
X63.6Y-59.1
X63.6Y-61.2
X65.5Y-59.2
X65.5Y-61.2
X65.95Y-150.525
X66.025Y-174.4
X66.125Y-168.375
X66.25Y-59.2
X66.25Y-61.2
X67.0Y-59.2
X67.0Y-61.2
X67.0Y-67.1
X67.0Y-70.2
X67.0Y-75.9
X67.1Y-78.3
X67.75Y-67.1
X67.75Y-70.2
X67.75Y-75.9
X67.85Y-78.3
X68.5Y-67.1
X68.5Y-70.2
X68.5Y-75.9
X68.6Y-78.3
X68.9Y-59.2
X68.9Y-61.2
X69.65Y-59.2
X69.65Y-61.2
X69.875Y-154.153
X70.4Y-59.2
X70.4Y-61.2
X71.475Y-147.95
X71.5Y-177.0
X72.1Y-94.5
X72.16Y-148.93
X72.16Y-150.3
X72.16Y-151.4
X72.16Y-152.35
X72.16Y-153.24
X72.16Y-154.19
X72.16Y-155.11
X72.16Y-156.06
X72.16Y-168.93
X72.16Y-169.88
X72.16Y-170.8
X72.16Y-171.75
X72.16Y-172.64
X72.16Y-173.59
X72.16Y-174.69
X72.16Y-176.06
X72.2Y-80.6
X72.2Y-81.35
X72.2Y-82.1
X72.85Y-94.5
X73.4Y-75.5
X73.45Y-148.93
X73.45Y-150.3
X73.45Y-151.4
X73.45Y-152.35
X73.45Y-153.24
X73.45Y-154.19
X73.45Y-155.11
X73.45Y-156.06
X73.45Y-168.93
X73.45Y-169.88
X73.45Y-170.8
X73.45Y-171.75
X73.45Y-172.64
X73.45Y-173.59
X73.45Y-174.69
X73.45Y-176.06
X73.5Y-89.15
X73.5Y-89.9
X73.6Y-94.5
X73.8Y-73.89
X74.2Y-36.6
X74.36Y-168.93
X74.36Y-169.88
X74.36Y-170.8
X74.36Y-171.75
X74.36Y-172.64
X74.36Y-173.59
X74.36Y-174.69
X74.36Y-176.06
X74.37Y-148.93
X74.37Y-150.3
X74.37Y-151.4
X74.37Y-152.35
X74.37Y-153.24
X74.37Y-154.19
X74.37Y-155.11
X74.37Y-156.06
X74.4Y-76.8
X74.4Y-77.55
X74.9Y-75.5
X75.1Y-76.5
X75.1Y-77.25
X75.1Y-78.0
X75.5Y-102.0
X75.5Y-103.25
X75.5Y-104.5
X75.5Y-105.75
X75.5Y-107.0
X75.5Y-109.25
X75.5Y-110.25
X75.5Y-111.5
X75.517Y-107.973
X75.65Y-168.93
X75.65Y-169.88
X75.65Y-170.8
X75.65Y-171.75
X75.65Y-172.64
X75.65Y-173.59
X75.65Y-174.69
X75.65Y-176.06
X75.66Y-148.93
X75.66Y-150.3
X75.66Y-151.4
X75.66Y-152.35
X75.66Y-153.24
X75.66Y-154.19
X75.66Y-155.11
X75.66Y-156.06
X76.0Y-72.1
X76.3Y-81.6
X76.57Y-148.93
X76.57Y-150.3
X76.57Y-151.4
X76.57Y-152.35
X76.57Y-153.24
X76.57Y-154.19
X76.57Y-155.11
X76.57Y-156.06
X76.57Y-168.93
X76.57Y-169.88
X76.57Y-170.8
X76.57Y-171.75
X76.57Y-172.64
X76.57Y-173.59
X76.57Y-174.69
X76.57Y-176.06
X77.2Y-81.0
X77.5Y-89.4
X77.7Y-58.72
X77.75Y-106.25
X77.75Y-107.75
X77.75Y-109.25
X77.75Y-110.75
X77.86Y-148.93
X77.86Y-150.3
X77.86Y-151.4
X77.86Y-152.35
X77.86Y-153.24
X77.86Y-154.19
X77.86Y-155.11
X77.86Y-156.06
X77.86Y-168.93
X77.86Y-169.88
X77.86Y-170.8
X77.86Y-171.75
X77.86Y-172.64
X77.86Y-173.59
X77.86Y-174.69
X77.86Y-176.06
X78.5Y-177.0
X78.525Y-147.95
X79.6Y-89.5
X79.985Y-170.713
X80.2Y-88.7
X80.2Y-93.75
X80.2Y-95.0
X80.2Y-96.0
X80.25Y-101.5
X80.25Y-102.75
X80.25Y-103.75
X80.4Y-75.9
X80.4Y-77.9
X80.4Y-79.9
X80.65Y-188.55
X80.7Y-89.5
X80.8Y-186.7
X80.877Y-55.42
X81.0Y-106.25
X81.0Y-107.75
X81.0Y-109.25
X81.0Y-110.75
X81.2Y-88.7
X81.2Y-93.75
X81.2Y-95.0
X81.2Y-96.0
X81.25Y-101.5
X81.25Y-102.75
X81.25Y-103.75
X81.7Y-89.5
X82.2Y-88.7
X82.2Y-93.75
X82.2Y-95.0
X82.2Y-96.0
X82.25Y-101.5
X82.25Y-102.75
X82.25Y-103.75
X82.4Y-75.9
X82.4Y-77.9
X82.4Y-79.9
X82.7Y-89.5
X83.2Y-87.7
X83.2Y-88.7
X83.45Y-163.25
X83.5Y-167.7
X83.6Y-175.0
X83.7Y-170.4
X83.8Y-189.5
X84.025Y-149.8
X84.25Y-106.25
X84.25Y-107.75
X84.25Y-109.25
X84.25Y-110.75
X84.4Y-188.0
X84.4Y-191.2
X85.4Y-58.7
X86.0Y-168.6
X86.0Y-175.1
X86.025Y-149.8
X86.6Y-75.4
X86.6Y-76.15
X86.6Y-76.9
X86.6Y-77.7
X86.6Y-78.45
X86.6Y-79.2
X86.6Y-80.0
X86.6Y-80.75
X86.6Y-81.5
X86.75Y-102.0
X86.75Y-103.25
X86.75Y-104.5
X86.75Y-105.75
X86.75Y-107.0
X86.75Y-109.25
X86.75Y-110.25
X86.75Y-111.5
X86.767Y-107.973
X87.15Y-33.25
X87.15Y-34.0
X87.15Y-34.75
X87.2Y-75.8
X87.2Y-76.55
X87.2Y-77.35
X87.2Y-78.1
X87.2Y-78.85
X87.2Y-79.65
X87.2Y-80.4
X87.2Y-81.15
X89.0Y-45.5
X89.835Y-46.6
X89.967Y-154.127
X90.9Y-45.535
X91.475Y-147.95
X91.475Y-177.0
X92.16Y-148.93
X92.16Y-150.3
X92.16Y-151.4
X92.16Y-152.35
X92.16Y-153.24
X92.16Y-154.19
X92.16Y-155.11
X92.16Y-156.06
X92.17Y-168.93
X92.17Y-169.88
X92.17Y-170.8
X92.17Y-171.75
X92.17Y-172.64
X92.17Y-173.59
X92.17Y-174.69
X92.17Y-176.06
X92.3Y-52.8
X92.34Y-50.427
X93.0Y-67.2
X93.0Y-70.3
X93.0Y-76.1
X93.0Y-78.3
X93.05Y-52.8
X93.09Y-50.427
X93.45Y-148.93
X93.45Y-150.3
X93.45Y-151.4
X93.45Y-152.35
X93.45Y-153.24
X93.45Y-154.19
X93.45Y-155.11
X93.45Y-156.06
X93.46Y-168.93
X93.46Y-169.88
X93.46Y-170.8
X93.46Y-171.75
X93.46Y-172.64
X93.46Y-173.59
X93.46Y-174.69
X93.46Y-176.06
X93.75Y-67.2
X93.75Y-70.3
X93.75Y-76.1
X93.75Y-78.3
X93.8Y-52.8
X93.84Y-50.427
X93.85Y-47.34
X93.85Y-48.04
X93.85Y-48.74
X94.35Y-155.11
X94.37Y-148.93
X94.37Y-150.3
X94.37Y-151.4
X94.37Y-152.35
X94.37Y-153.24
X94.37Y-154.19
X94.37Y-156.06
X94.37Y-168.93
X94.37Y-169.88
X94.37Y-170.8
X94.37Y-171.75
X94.37Y-172.64
X94.37Y-173.59
X94.37Y-174.69
X94.37Y-176.06
X94.5Y-67.2
X94.5Y-70.3
X94.5Y-76.1
X94.5Y-78.3
X95.66Y-148.93
X95.66Y-150.3
X95.66Y-151.4
X95.66Y-152.35
X95.66Y-153.24
X95.66Y-154.19
X95.66Y-155.11
X95.66Y-156.06
X95.66Y-168.93
X95.66Y-169.88
X95.66Y-170.8
X95.66Y-171.75
X95.66Y-172.64
X95.66Y-173.59
X95.66Y-174.69
X95.66Y-176.06
X95.7Y-33.2
X95.7Y-33.95
X95.7Y-34.7
X96.57Y-148.93
X96.57Y-150.3
X96.57Y-151.4
X96.57Y-152.35
X96.57Y-153.24
X96.57Y-154.19
X96.57Y-155.11
X96.57Y-156.06
X96.58Y-168.93
X96.58Y-169.88
X96.58Y-170.8
X96.58Y-171.75
X96.58Y-172.64
X96.58Y-173.59
X96.58Y-174.69
X96.58Y-176.06
X97.7Y-94.5
X97.86Y-148.93
X97.86Y-150.3
X97.86Y-151.4
X97.86Y-152.35
X97.86Y-153.24
X97.86Y-154.19
X97.86Y-155.11
X97.86Y-156.06
X97.87Y-168.93
X97.87Y-169.88
X97.87Y-170.8
X97.87Y-171.75
X97.87Y-172.64
X97.87Y-173.59
X97.87Y-174.69
X97.87Y-176.06
X97.9Y-76.9
X98.0Y-80.7
X98.0Y-81.45
X98.0Y-82.2
X98.45Y-94.5
X98.525Y-147.95
X98.55Y-177.0
X99.159Y-43.512
X99.2Y-89.15
X99.2Y-89.9
X99.2Y-94.5
X99.375Y-49.625
X99.873Y-151.079
X100.1Y-77.2
X100.1Y-77.95
X100.101Y-170.713
X100.7Y-71.7
X100.77Y-47.5
X100.8Y-76.8
X100.8Y-77.55
X100.8Y-78.3
X101.233Y-102.527
X101.233Y-103.777
X101.233Y-105.027
X101.233Y-106.277
X101.233Y-107.527
X101.233Y-109.777
X101.233Y-110.777
X101.233Y-112.027
X101.25Y-108.5
X101.6Y-47.51
X101.829Y-42.572
X101.836Y-34.543
X101.9Y-81.9
X102.569Y-47.812
X102.669Y-38.542
X102.8Y-81.2
X103.161Y-89.473
X103.409Y-46.182
X103.5Y-106.5
X103.5Y-108.0
X103.5Y-109.5
X103.5Y-111.0
X103.925Y-170.4
X103.95Y-168.4
X103.95Y-175.125
X104.05Y-150.525
X104.418Y-37.983
X104.539Y-44.742
X105.1Y-89.8
X105.7Y-89.0
X105.75Y-101.75
X105.75Y-103.0
X105.75Y-104.0
X105.9Y-75.6
X105.9Y-77.6
X105.9Y-79.6
X105.9Y-94.05
X105.9Y-95.3
X105.9Y-96.3
X106.2Y-89.8
X106.225Y-45.025
X106.7Y-89.0
X106.75Y-101.75
X106.75Y-103.0
X106.75Y-104.0
X106.75Y-106.5
X106.75Y-108.0
X106.75Y-109.5
X106.75Y-111.0
X106.9Y-49.9
X106.9Y-94.05
X106.9Y-95.3
X106.9Y-96.3
X107.196Y-38.123
X107.2Y-89.8
X107.256Y-38.903
X107.286Y-36.533
X107.669Y-45.05
X107.7Y-89.0
X107.75Y-101.75
X107.75Y-103.0
X107.75Y-104.0
X107.9Y-75.6
X107.9Y-77.6
X107.9Y-79.6
X107.9Y-94.05
X107.9Y-95.3
X107.9Y-96.3
X107.95Y-53.05
X108.2Y-89.8
X108.7Y-88.0
X108.7Y-89.0
X108.83Y-48.07
X109.35Y-50.9
X109.4Y-55.7
X110.0Y-106.5
X110.0Y-108.0
X110.0Y-109.5
X110.0Y-111.0
X111.359Y-36.602
X112.5Y-102.25
X112.5Y-103.5
X112.5Y-104.75
X112.5Y-106.0
X112.5Y-107.25
X112.5Y-109.5
X112.5Y-110.5
X112.5Y-111.75
X112.517Y-108.223
X112.7Y-75.2
X112.7Y-75.95
X112.7Y-76.7
X112.7Y-77.5
X112.7Y-78.25
X112.7Y-79.0
X112.7Y-79.8
X112.7Y-80.55
X112.7Y-81.3
X113.269Y-36.432
X113.3Y-52.93
X113.3Y-75.5
X113.3Y-76.25
X113.3Y-77.05
X113.3Y-77.8
X113.3Y-78.55
X113.3Y-79.35
X113.3Y-80.1
X113.3Y-80.85
X113.7Y-54.1
X114.659Y-36.602
X116.33Y-52.87
X116.4Y-55.7
X116.6Y-57.9
X116.739Y-36.852
X117.4Y-74.8
X117.4Y-75.55
X117.4Y-76.3
X117.6Y-57.4
X118.109Y-40.802
X118.129Y-36.792
X118.289Y-46.619
X118.3Y-77.4
X118.307Y-55.648
X118.4Y-70.7
X118.45Y-71.6
X118.6Y-67.2
X118.7Y-115.125
X119.05Y-77.4
X119.15Y-70.7
X119.2Y-71.6
X119.35Y-67.2
X119.8Y-77.4
X119.9Y-70.7
X119.95Y-71.6
X120.4Y-83.4
X120.7Y-115.125
X121.609Y-52.292
X123.039Y-40.912
X123.039Y-43.882
X123.039Y-45.052
X123.039Y-46.172
X123.039Y-50.962
X123.3Y-81.1
X123.3Y-81.85
X123.3Y-82.6
X123.5Y-94.7
X124.25Y-94.7
X124.9Y-89.25
X124.9Y-90.0
X125.0Y-94.7
X126.0Y-77.0
X126.0Y-77.75
X126.3Y-53.4
X126.7Y-76.6
X126.7Y-77.35
X126.7Y-78.1
X127.0Y-102.5
X127.0Y-103.75
X127.0Y-105.0
X127.0Y-106.25
X127.0Y-107.5
X127.0Y-109.75
X127.0Y-110.75
X127.0Y-112.0
X127.017Y-108.473
X127.15Y-80.714
X127.219Y-48.08
X128.1Y-46.502
X128.409Y-47.242
X128.583Y-81.113
X129.017Y-89.7
X129.5Y-106.5
X129.5Y-108.0
X129.5Y-109.5
X129.5Y-111.0
X131.0Y-89.6
X131.6Y-88.8
X131.7Y-94.25
X131.7Y-95.5
X131.7Y-96.5
X131.75Y-101.75
X131.75Y-103.0
X131.75Y-104.0
X131.8Y-75.5
X131.8Y-77.5
X131.8Y-79.5
X132.1Y-89.6
X132.6Y-88.8
X132.7Y-94.25
X132.7Y-95.5
X132.7Y-96.5
X132.75Y-101.75
X132.75Y-103.0
X132.75Y-104.0
X132.75Y-106.5
X132.75Y-108.0
X132.75Y-109.5
X132.75Y-111.0
X133.1Y-89.6
X133.6Y-88.8
X133.7Y-94.25
X133.7Y-95.5
X133.7Y-96.5
X133.75Y-101.75
X133.75Y-103.0
X133.75Y-104.0
X133.8Y-75.5
X133.8Y-77.5
X133.8Y-79.5
X134.1Y-89.6
X134.6Y-87.8
X134.6Y-88.8
X136.0Y-106.5
X136.0Y-108.0
X136.0Y-109.5
X136.0Y-111.0
X138.2Y-75.0
X138.2Y-75.75
X138.2Y-76.5
X138.2Y-77.3
X138.2Y-78.05
X138.2Y-78.8
X138.2Y-79.6
X138.2Y-80.35
X138.2Y-81.1
X138.25Y-102.5
X138.25Y-103.75
X138.25Y-105.0
X138.25Y-106.25
X138.25Y-107.5
X138.25Y-109.75
X138.25Y-110.75
X138.25Y-112.0
X138.267Y-108.473
X138.8Y-75.4
X138.8Y-76.15
X138.8Y-76.95
X138.8Y-77.7
X138.8Y-78.45
X138.8Y-79.25
X138.8Y-80.0
X138.8Y-80.75
X143.5Y-78.0
X143.6Y-66.9
X143.6Y-68.0
X143.6Y-75.8
X144.25Y-78.0
X144.35Y-66.9
X144.35Y-68.0
X144.35Y-75.8
X145.0Y-78.0
X145.1Y-66.9
X145.1Y-68.0
X145.1Y-75.8
X149.1Y-94.6
X149.85Y-94.6
X149.9Y-81.1
X149.9Y-81.85
X150.5Y-89.25
X150.5Y-90.0
X150.6Y-94.6
X150.7Y-91.6
X152.3Y-77.0
X152.3Y-77.75
X152.75Y-102.5
X152.75Y-103.75
X152.75Y-105.0
X152.75Y-106.25
X152.75Y-107.5
X152.75Y-109.75
X152.75Y-110.75
X152.75Y-112.0
X152.767Y-108.473
X152.9Y-76.7
X152.9Y-77.45
X152.9Y-78.2
X153.4Y-83.2
X154.1Y-81.7
X154.8Y-89.0
X155.05Y-81.25
X155.25Y-106.5
X155.25Y-108.0
X155.25Y-109.5
X155.25Y-111.0
X156.8Y-89.7
X157.25Y-101.75
X157.25Y-103.0
X157.25Y-104.0
X157.3Y-94.25
X157.3Y-95.5
X157.3Y-96.5
X157.4Y-88.9
X157.7Y-75.8
X157.7Y-77.8
X157.7Y-79.8
X157.9Y-89.7
X158.25Y-101.75
X158.25Y-103.0
X158.25Y-104.0
X158.3Y-94.25
X158.3Y-95.5
X158.3Y-96.5
X158.4Y-88.9
X158.5Y-106.5
X158.5Y-108.0
X158.5Y-109.5
X158.5Y-111.0
X158.9Y-89.7
X159.25Y-101.75
X159.25Y-103.0
X159.25Y-104.0
X159.3Y-94.25
X159.3Y-95.5
X159.3Y-96.5
X159.4Y-88.9
X159.7Y-75.8
X159.7Y-77.8
X159.7Y-79.8
X159.9Y-89.7
X160.4Y-87.9
X160.4Y-88.9
X161.75Y-106.5
X161.75Y-108.0
X161.75Y-109.5
X161.75Y-111.0
X162.65Y-157.05
X163.9Y-55.67
X163.9Y-56.67
X163.9Y-75.5
X163.9Y-76.25
X163.9Y-77.0
X163.9Y-77.8
X163.9Y-78.55
X163.9Y-79.3
X163.9Y-80.1
X163.9Y-80.85
X163.9Y-81.6
X164.0Y-102.5
X164.0Y-103.75
X164.0Y-105.0
X164.0Y-106.25
X164.0Y-107.5
X164.0Y-109.75
X164.0Y-110.75
X164.0Y-112.0
X164.017Y-108.473
X164.3Y-40.7
X164.5Y-75.8
X164.5Y-76.55
X164.5Y-77.35
X164.5Y-78.1
X164.5Y-78.85
X164.5Y-79.65
X164.5Y-80.4
X164.5Y-81.15
X164.875Y-150.375
X164.9Y-151.975
X164.95Y-55.67
X164.95Y-56.67
X165.05Y-168.375
X165.075Y-175.125
X165.1Y-40.7
X165.125Y-156.3
X165.65Y-136.35
X165.9Y-40.69
X165.95Y-55.67
X165.95Y-56.67
X166.025Y-158.625
X166.125Y-137.125
X166.425Y-135.5
X166.9Y-56.67
X168.504Y-152.603
X168.554Y-153.467
X168.84Y-149.71
X168.86Y-154.94
X169.113Y-147.98
X169.113Y-148.895
X170.15Y-53.1
X170.5Y-147.975
X170.5Y-177.0
X171.145Y-148.94
X171.145Y-150.31
X171.145Y-151.41
X171.145Y-152.36
X171.145Y-153.25
X171.145Y-154.2
X171.145Y-155.12
X171.145Y-156.07
X171.155Y-168.91
X171.155Y-169.86
X171.155Y-170.78
X171.155Y-171.73
X171.155Y-172.62
X171.155Y-173.57
X171.155Y-174.67
X171.155Y-176.04
X172.435Y-148.94
X172.435Y-150.31
X172.435Y-151.41
X172.435Y-152.36
X172.435Y-153.25
X172.435Y-154.2
X172.435Y-155.12
X172.435Y-156.07
X172.445Y-168.91
X172.445Y-169.86
X172.445Y-170.78
X172.445Y-171.73
X172.445Y-172.62
X172.445Y-173.57
X172.445Y-174.67
X172.445Y-176.04
X172.66Y-53.13
X173.355Y-148.94
X173.355Y-150.31
X173.355Y-151.41
X173.355Y-152.36
X173.355Y-153.25
X173.355Y-154.2
X173.355Y-155.12
X173.355Y-156.07
X173.355Y-168.91
X173.355Y-169.86
X173.355Y-170.78
X173.355Y-171.73
X173.355Y-172.62
X173.355Y-173.57
X173.355Y-174.67
X173.355Y-176.04
X174.645Y-148.94
X174.645Y-150.31
X174.645Y-151.41
X174.645Y-152.36
X174.645Y-153.25
X174.645Y-154.2
X174.645Y-155.12
X174.645Y-156.07
X174.645Y-168.91
X174.645Y-169.86
X174.645Y-170.78
X174.645Y-171.73
X174.645Y-172.62
X174.645Y-173.57
X174.645Y-174.67
X174.645Y-176.04
X174.725Y-94.4
X175.475Y-94.4
X175.555Y-148.94
X175.555Y-150.31
X175.555Y-151.41
X175.555Y-152.36
X175.555Y-153.25
X175.555Y-154.2
X175.555Y-155.12
X175.555Y-156.07
X175.565Y-168.91
X175.565Y-169.86
X175.565Y-170.78
X175.565Y-171.73
X175.565Y-172.62
X175.565Y-173.57
X175.565Y-174.67
X175.565Y-176.04
X175.6Y-81.1
X175.6Y-81.85
X176.125Y-89.25
X176.125Y-90.0
X176.225Y-91.5
X176.225Y-94.4
X176.845Y-148.94
X176.845Y-150.31
X176.845Y-151.41
X176.845Y-152.36
X176.845Y-153.25
X176.845Y-154.2
X176.845Y-155.12
X176.845Y-156.07
X176.855Y-168.91
X176.855Y-169.86
X176.855Y-170.78
X176.855Y-171.73
X176.855Y-172.62
X176.855Y-173.57
X176.855Y-174.67
X176.855Y-176.04
X177.4Y-76.5
X177.4Y-77.25
X177.525Y-147.95
X177.525Y-177.0
X178.1Y-76.1
X178.1Y-76.85
X178.1Y-77.6
X178.7Y-87.8
X178.918Y-147.625
X179.0Y-83.1
X179.0Y-102.75
X179.0Y-104.0
X179.0Y-105.25
X179.0Y-106.5
X179.0Y-107.75
X179.0Y-110.0
X179.0Y-111.0
X179.0Y-112.25
X179.017Y-108.723
X179.121Y-170.891
X179.172Y-148.59
X179.224Y-149.582
X179.4Y-81.83
X180.1Y-89.2
X180.26Y-81.14
X181.5Y-106.5
X181.5Y-108.0
X181.5Y-109.5
X181.5Y-111.0
X182.1Y-89.6
X182.7Y-88.9
X182.875Y-156.575
X182.9Y-168.4
X182.9Y-170.4
X182.95Y-174.925
X183.07Y-150.26
X183.2Y-75.7
X183.2Y-77.7
X183.2Y-79.7
X183.2Y-89.7
X183.5Y-102.0
X183.5Y-103.25
X183.5Y-104.25
X183.6Y-94.25
X183.6Y-95.5
X183.6Y-96.5
X183.7Y-88.9
X184.11Y-161.37
X184.2Y-89.7
X184.5Y-102.0
X184.5Y-103.25
X184.5Y-104.25
X184.6Y-94.25
X184.6Y-95.5
X184.6Y-96.5
X184.7Y-88.9
X184.75Y-106.5
X184.75Y-108.0
X184.75Y-109.5
X184.75Y-111.0
X185.025Y-174.925
X185.075Y-149.8
X185.15Y-168.375
X185.2Y-75.7
X185.2Y-77.7
X185.2Y-79.7
X185.2Y-89.7
X185.5Y-102.0
X185.5Y-103.25
X185.5Y-104.25
X185.6Y-94.25
X185.6Y-95.5
X185.6Y-96.5
X185.7Y-87.9
X185.7Y-88.9
X186.2Y-89.7
X186.7Y-157.625
X186.825Y-155.475
X187.15Y-55.47
X187.15Y-56.42
X188.0Y-106.5
X188.0Y-108.0
X188.0Y-109.5
X188.0Y-111.0
X188.15Y-55.47
X188.15Y-56.42
X189.078Y-154.051
X189.15Y-55.47
X189.15Y-56.42
X189.3Y-36.57
X189.5Y-75.6
X189.5Y-76.35
X189.5Y-77.1
X189.5Y-77.9
X189.5Y-78.65
X189.5Y-79.4
X189.5Y-80.2
X189.5Y-80.95
X189.5Y-81.7
X190.15Y-55.47
X190.15Y-56.42
X190.2Y-75.9
X190.2Y-76.65
X190.2Y-77.45
X190.2Y-78.2
X190.2Y-78.95
X190.2Y-79.75
X190.2Y-80.5
X190.2Y-81.25
X190.3Y-102.8
X190.3Y-104.05
X190.3Y-105.3
X190.3Y-106.55
X190.3Y-107.8
X190.3Y-110.05
X190.3Y-111.05
X190.3Y-112.3
X190.317Y-108.773
X190.475Y-147.975
X190.5Y-177.0
X191.145Y-148.94
X191.145Y-150.31
X191.145Y-151.41
X191.145Y-152.36
X191.145Y-153.25
X191.145Y-154.2
X191.145Y-155.12
X191.145Y-156.07
X191.145Y-168.93
X191.145Y-169.88
X191.145Y-170.8
X191.145Y-171.75
X191.145Y-172.64
X191.145Y-173.59
X191.145Y-174.69
X191.145Y-176.06
X191.15Y-55.47
X191.15Y-56.42
X191.5Y-36.57
X192.1Y-53.3
X192.435Y-148.94
X192.435Y-150.31
X192.435Y-151.41
X192.435Y-152.36
X192.435Y-153.25
X192.435Y-154.2
X192.435Y-155.12
X192.435Y-156.07
X192.435Y-168.93
X192.435Y-169.88
X192.435Y-170.8
X192.435Y-171.75
X192.435Y-172.64
X192.435Y-173.59
X192.435Y-174.69
X192.435Y-176.06
X193.0Y-53.3
X193.345Y-168.93
X193.345Y-169.88
X193.345Y-170.8
X193.345Y-171.75
X193.345Y-172.64
X193.345Y-173.59
X193.345Y-174.69
X193.345Y-176.06
X193.355Y-148.94
X193.355Y-150.31
X193.355Y-151.41
X193.355Y-152.36
X193.355Y-153.25
X193.355Y-154.2
X193.355Y-155.12
X193.355Y-156.07
X193.8Y-53.3
X194.635Y-168.93
X194.635Y-169.88
X194.635Y-170.8
X194.635Y-171.75
X194.635Y-172.64
X194.635Y-173.59
X194.635Y-174.69
X194.635Y-176.06
X194.645Y-148.94
X194.645Y-150.31
X194.645Y-151.41
X194.645Y-152.36
X194.645Y-153.25
X194.645Y-154.2
X194.645Y-155.12
X194.645Y-156.07
X195.555Y-148.94
X195.555Y-150.31
X195.555Y-151.41
X195.555Y-152.36
X195.555Y-153.25
X195.555Y-154.2
X195.555Y-155.12
X195.555Y-156.07
X195.555Y-168.93
X195.555Y-169.88
X195.555Y-170.8
X195.555Y-171.75
X195.555Y-172.64
X195.555Y-173.59
X195.555Y-174.69
X195.555Y-176.06
X196.845Y-148.94
X196.845Y-150.31
X196.845Y-151.41
X196.845Y-152.36
X196.845Y-153.25
X196.845Y-154.2
X196.845Y-155.12
X196.845Y-156.07
X196.845Y-168.93
X196.845Y-169.88
X196.845Y-170.8
X196.845Y-171.75
X196.845Y-172.64
X196.845Y-173.59
X196.845Y-174.69
X196.845Y-176.06
X197.1Y-162.9
X197.5Y-147.95
X197.5Y-177.0
X199.187Y-170.713
X202.44Y-88.08
X202.9Y-168.425
X202.925Y-170.4
X202.95Y-174.4
X203.025Y-156.55
X203.1Y-150.55
X204.62Y-90.42
X206.0Y-96.55
X207.6Y-91.65
X207.65Y-89.22
X210.15Y-91.65
X210.3Y-159.7
X210.5Y-127.5
X210.9Y-160.8
X211.7Y-126.9
X212.0Y-96.44
X212.0Y-161.8
X212.875Y-89.51
X213.0Y-127.2
X213.85Y-89.88
X214.08Y-94.3
X214.8Y-163.8
X215.61Y-96.44
X216.38Y-89.82
X217.36Y-96.88
X217.58Y-89.88
X219.47Y-88.22
T4
X49.2Y-82.9
X49.5Y-87.2
X70.31Y-159.24
X70.33Y-165.64
X71.08Y-167.26
X71.09Y-157.58
X72.74Y-177.0
X72.8Y-147.96
X74.94Y-177.0
X75.048Y-82.67
X75.05Y-147.96
X75.1Y-87.2
X77.19Y-177.0
X77.25Y-147.96
X78.91Y-167.26
X78.97Y-157.55
X79.89Y-158.97
X79.95Y-165.88
X84.2Y-165.9
X85.3Y-164.7
X87.0Y-162.5
X90.06Y-165.87
X90.16Y-158.97
X91.08Y-157.53
X91.09Y-167.34
X92.74Y-177.0
X92.8Y-147.96
X94.94Y-177.0
X95.05Y-147.96
X97.19Y-177.0
X97.25Y-147.96
X98.92Y-157.55
X98.92Y-167.34
X99.91Y-159.52
X99.93Y-165.48
X100.8Y-87.7
X101.4Y-83.0
X126.61Y-88.03
X127.3Y-83.0
X169.09Y-164.86
X169.17Y-159.81
X170.08Y-157.47
X170.08Y-167.28
X171.74Y-177.0
X171.8Y-147.96
X173.94Y-177.0
X174.05Y-147.96
X176.19Y-177.0
X176.25Y-147.96
X177.91Y-157.47
X177.92Y-167.28
X178.84Y-159.65
X178.97Y-165.88
X182.0Y-162.45
X189.12Y-165.87
X189.21Y-159.59
X190.08Y-167.29
X190.09Y-157.58
X191.74Y-177.0
X191.801Y-147.955
X193.94Y-177.0
X194.051Y-147.955
X196.19Y-177.0
X196.251Y-147.955
X197.91Y-157.56
X197.92Y-167.3
X198.66Y-159.46
X198.66Y-165.38
X216.0Y-165.1
T5
X47.682Y-91.5
X48.675Y-41.745
X48.68Y-39.745
X48.68Y-43.745
X50.675Y-41.745
X50.68Y-39.745
X50.68Y-43.745
X52.675Y-41.745
X52.68Y-39.745
X52.68Y-43.745
X55.725Y-41.77
X55.73Y-39.77
X55.73Y-43.77
X57.725Y-41.77
X57.73Y-39.77
X57.73Y-43.77
X59.725Y-41.77
X59.73Y-39.77
X59.73Y-43.77
X61.4Y-62.4
X62.9Y-62.4
X63.6Y-55.0
X63.7Y-50.5
X64.4Y-62.4
X65.9Y-62.4
X66.06Y-156.54
X66.09Y-154.54
X66.3Y-50.5
X66.3Y-54.9
X66.5Y-38.6
X66.5Y-40.1
X66.5Y-45.1
X67.5Y-62.4
X68.4Y-50.5
X68.4Y-54.9
X69.0Y-62.4
X69.9Y-38.6
X69.9Y-40.1
X69.9Y-45.1
X70.5Y-62.4
X70.6Y-50.5
X70.6Y-54.9
X72.0Y-59.4
X72.0Y-60.9
X72.0Y-62.4
X72.97Y-161.65
X72.97Y-163.19
X73.582Y-91.4
X77.0Y-161.66
X77.01Y-163.21
X83.96Y-156.54
X86.04Y-154.54
X86.04Y-156.54
X92.97Y-161.64
X92.97Y-163.19
X97.01Y-161.65
X97.01Y-163.2
X99.09Y-33.26
X99.272Y-91.4
X103.96Y-156.52
X119.714Y-33.497
X124.962Y-91.5
X171.96Y-163.2
X171.97Y-161.64
X176.01Y-161.65
X176.01Y-163.21
X191.97Y-163.19
X192.1Y-160.9
X195.9Y-161.0
X196.01Y-163.21
X203.9Y-85.91
X203.975Y-84.31
T7
X202.475Y-98.23
X203.745Y-98.23
X205.015Y-98.23
X206.285Y-98.23
X207.555Y-98.23
X208.825Y-98.23
T8
X52.9Y-91.8
X55.4Y-91.8
X57.9Y-91.8
X78.7Y-91.6
X81.2Y-91.6
X83.7Y-91.6
X104.2Y-91.9
X106.7Y-91.9
X109.2Y-91.9
X130.1Y-91.7
X132.6Y-91.7
X135.1Y-91.7
X155.9Y-91.8
X158.4Y-91.8
X160.9Y-91.8
X182.2Y-91.8
X184.7Y-91.8
X187.2Y-91.8
T9
X46.2Y-83.84
X46.2Y-86.1
X47.51Y-142.5
X47.51Y-146.5
X47.51Y-150.5
X47.51Y-154.5
X47.51Y-158.5
X47.51Y-162.5
X47.51Y-166.5
X47.51Y-170.5
X47.51Y-174.5
X47.51Y-178.5
X47.51Y-182.5
X48.2Y-83.84
X48.2Y-86.1
X51.245Y-115.0
X51.245Y-117.0
X51.245Y-119.0
X51.245Y-121.0
X51.245Y-123.0
X51.51Y-142.5
X51.51Y-146.5
X51.51Y-150.5
X51.51Y-154.5
X51.51Y-158.5
X51.51Y-162.5
X51.51Y-166.5
X51.51Y-170.5
X51.51Y-174.5
X51.51Y-178.5
X51.51Y-182.5
X53.74Y-117.0
X53.745Y-115.0
X53.745Y-119.0
X53.745Y-121.0
X53.745Y-123.0
X55.5Y-142.5
X55.5Y-146.5
X55.5Y-150.5
X55.5Y-154.5
X55.5Y-158.5
X55.5Y-162.5
X55.5Y-166.5
X55.5Y-170.5
X55.5Y-174.5
X55.5Y-178.5
X55.5Y-182.5
X56.245Y-119.0
X56.245Y-121.0
X56.245Y-123.0
X56.29Y-115.0
X56.295Y-117.0
X56.3Y-69.8
X58.74Y-115.0
X58.745Y-117.0
X58.745Y-119.0
X58.745Y-121.0
X58.745Y-123.0
X58.8Y-67.3
X58.8Y-69.8
X61.24Y-115.0
X61.245Y-117.0
X61.245Y-119.0
X61.245Y-121.0
X61.25Y-123.0
X61.3Y-67.3
X61.3Y-69.8
X62.6Y-83.74
X62.6Y-86.0
X64.6Y-83.74
X64.6Y-86.0
X65.3Y-190.2
X65.3Y-194.19
X65.3Y-198.19
X69.3Y-190.2
X69.3Y-194.19
X69.3Y-198.19
X71.6Y-83.8
X71.6Y-86.06
X73.3Y-190.2
X73.3Y-194.19
X73.3Y-198.19
X73.6Y-83.8
X73.6Y-86.06
X76.5Y-114.75
X76.5Y-116.75
X76.5Y-118.75
X76.5Y-120.75
X76.5Y-122.75
X77.2Y-67.2
X77.2Y-69.7
X77.3Y-190.2
X77.3Y-194.19
X77.3Y-198.19
X78.995Y-116.75
X79.0Y-114.75
X79.0Y-118.75
X79.0Y-120.75
X79.0Y-122.75
X79.7Y-67.2
X79.7Y-69.7
X81.3Y-190.2
X81.3Y-194.19
X81.3Y-198.19
X81.5Y-118.75
X81.5Y-120.75
X81.5Y-122.75
X81.545Y-114.75
X81.55Y-116.75
X82.2Y-67.2
X82.2Y-69.7
X83.995Y-114.75
X84.0Y-116.75
X84.0Y-118.75
X84.0Y-120.75
X84.0Y-122.75
X84.7Y-67.2
X84.7Y-69.7
X85.3Y-190.2
X85.3Y-194.19
X85.3Y-198.19
X86.495Y-114.75
X86.5Y-116.75
X86.5Y-118.75
X86.5Y-120.75
X86.505Y-122.75
X88.4Y-83.84
X88.4Y-86.1
X89.3Y-190.2
X89.3Y-194.19
X89.3Y-198.19
X90.4Y-83.84
X90.4Y-86.1
X93.3Y-190.2
X93.3Y-194.19
X93.3Y-198.19
X97.3Y-190.2
X97.3Y-194.19
X97.3Y-198.19
X98.2Y-83.8
X98.2Y-86.06
X100.2Y-83.8
X100.2Y-86.06
X101.3Y-190.2
X101.3Y-194.19
X101.3Y-198.19
X102.25Y-115.0
X102.25Y-117.0
X102.25Y-119.0
X102.25Y-121.0
X102.25Y-123.0
X104.745Y-117.0
X104.75Y-115.0
X104.75Y-119.0
X104.75Y-121.0
X104.75Y-123.0
X105.2Y-67.0
X105.2Y-69.5
X105.3Y-190.2
X105.3Y-194.19
X105.3Y-198.19
X107.25Y-119.0
X107.25Y-121.0
X107.25Y-123.0
X107.295Y-115.0
X107.3Y-117.0
X107.7Y-67.0
X107.7Y-69.5
X109.745Y-115.0
X109.75Y-117.0
X109.75Y-119.0
X109.75Y-121.0
X109.75Y-123.0
X110.2Y-67.0
X110.2Y-69.5
X112.245Y-115.0
X112.25Y-117.0
X112.25Y-119.0
X112.25Y-121.0
X112.255Y-123.0
X114.0Y-83.84
X114.0Y-86.1
X116.0Y-83.84
X116.0Y-86.1
X122.4Y-146.1
X122.4Y-150.09
X122.4Y-154.09
X124.3Y-84.04
X124.3Y-86.3
X126.3Y-84.04
X126.3Y-86.3
X126.4Y-146.1
X126.4Y-150.09
X126.4Y-154.09
X127.995Y-115.0
X127.995Y-117.0
X127.995Y-119.0
X127.995Y-121.0
X127.995Y-123.0
X128.9Y-67.2
X128.9Y-69.7
X130.4Y-146.1
X130.4Y-150.09
X130.4Y-154.09
X130.49Y-117.0
X130.495Y-115.0
X130.495Y-119.0
X130.495Y-121.0
X130.495Y-123.0
X131.4Y-67.2
X131.4Y-69.7
X132.995Y-119.0
X132.995Y-121.0
X132.995Y-123.0
X133.04Y-115.0
X133.045Y-117.0
X133.9Y-67.2
X133.9Y-69.7
X134.4Y-146.1
X134.4Y-150.09
X134.4Y-154.09
X135.49Y-115.0
X135.495Y-117.0
X135.495Y-119.0
X135.495Y-121.0
X135.495Y-123.0
X136.4Y-67.2
X136.4Y-69.7
X137.99Y-115.0
X137.995Y-117.0
X137.995Y-119.0
X137.995Y-121.0
X138.0Y-123.0
X138.4Y-146.1
X138.4Y-150.09
X138.4Y-154.09
X140.2Y-84.0
X140.2Y-86.3
X142.2Y-84.0
X142.2Y-86.3
X142.4Y-146.1
X142.4Y-150.09
X142.4Y-154.09
X146.4Y-146.1
X146.4Y-150.09
X146.4Y-154.09
X150.3Y-84.0
X150.3Y-86.3
X152.3Y-84.0
X152.3Y-86.3
X153.5Y-114.75
X153.5Y-116.75
X153.5Y-118.75
X153.5Y-120.75
X153.5Y-122.75
X154.4Y-67.2
X154.4Y-69.7
X155.995Y-116.75
X156.0Y-114.75
X156.0Y-118.75
X156.0Y-120.75
X156.0Y-122.75
X156.9Y-67.2
X156.9Y-69.7
X158.5Y-118.75
X158.5Y-120.75
X158.5Y-122.75
X158.545Y-114.75
X158.55Y-116.75
X159.4Y-67.2
X159.4Y-69.7
X160.995Y-114.75
X161.0Y-116.75
X161.0Y-118.75
X161.0Y-120.75
X161.0Y-122.75
X161.9Y-67.2
X161.9Y-69.7
X163.495Y-114.75
X163.5Y-116.75
X163.5Y-118.75
X163.5Y-120.75
X163.505Y-122.75
X164.3Y-190.2
X164.3Y-194.19
X164.3Y-198.19
X168.3Y-190.2
X168.3Y-194.19
X168.3Y-198.19
X172.3Y-190.2
X172.3Y-194.19
X172.3Y-198.19
X175.1Y-67.1
X175.1Y-69.6
X175.6Y-84.24
X175.6Y-86.3
X176.3Y-190.2
X176.3Y-194.19
X176.3Y-198.19
X177.6Y-67.1
X177.6Y-69.6
X177.6Y-84.24
X177.6Y-86.3
X179.745Y-114.5
X179.745Y-116.5
X179.745Y-118.5
X179.745Y-120.5
X179.745Y-122.5
X180.2Y-69.6
X180.3Y-190.2
X180.3Y-194.19
X180.3Y-198.19
X182.24Y-116.5
X182.245Y-114.5
X182.245Y-118.5
X182.245Y-120.5
X182.245Y-122.5
X184.3Y-190.2
X184.3Y-194.19
X184.3Y-198.19
X184.745Y-118.5
X184.745Y-120.5
X184.745Y-122.5
X184.79Y-114.5
X184.795Y-116.5
X187.24Y-114.5
X187.245Y-116.5
X187.245Y-118.5
X187.245Y-120.5
X187.245Y-122.5
X188.3Y-190.2
X188.3Y-194.19
X188.3Y-198.19
X189.74Y-114.5
X189.745Y-116.5
X189.745Y-118.5
X189.745Y-120.5
X189.75Y-122.5
X191.9Y-84.2
X191.9Y-86.26
X192.3Y-190.2
X192.3Y-194.19
X192.3Y-198.19
X193.9Y-84.2
X193.9Y-86.26
X196.3Y-190.2
X196.3Y-194.19
X196.3Y-198.19
X200.3Y-190.2
X200.3Y-194.19
X200.3Y-198.19
X202.41Y-112.57
X204.3Y-190.2
X204.3Y-194.19
X204.3Y-198.19
X213.5Y-142.5
X213.5Y-146.5
X213.5Y-150.5
X213.5Y-154.5
X213.5Y-158.5
X213.5Y-162.5
X213.5Y-166.5
X213.5Y-170.5
X213.5Y-174.5
X213.5Y-178.5
X213.5Y-182.5
X217.49Y-142.5
X217.49Y-146.5
X217.49Y-150.5
X217.49Y-154.5
X217.49Y-158.5
X217.49Y-162.5
X217.49Y-166.5
X217.49Y-170.5
X217.49Y-174.5
X217.49Y-178.5
X217.49Y-182.5
X221.49Y-142.5
X221.49Y-146.5
X221.49Y-150.5
X221.49Y-154.5
X221.49Y-158.5
X221.49Y-162.5
X221.49Y-166.5
X221.49Y-170.5
X221.49Y-174.5
X221.49Y-178.5
X221.49Y-182.5
T10
X165.05Y-35.56
X165.05Y-58.48
X167.59Y-35.56
X167.59Y-58.48
X170.13Y-35.56
X170.13Y-58.48
X172.67Y-35.56
X172.67Y-58.48
X175.21Y-35.56
X175.21Y-58.48
X177.75Y-35.56
X177.75Y-58.48
X180.29Y-35.56
X180.29Y-58.48
X182.83Y-35.56
X182.83Y-58.48
X185.37Y-35.56
X185.37Y-58.48
X187.91Y-35.56
X187.91Y-58.48
X190.45Y-35.56
X190.45Y-58.48
X192.99Y-35.56
X192.99Y-58.48
T11
X85.3Y-34.0
X85.3Y-36.54
X85.3Y-39.08
X85.3Y-41.62
X93.769Y-34.002
X93.769Y-36.542
X93.769Y-39.082
X93.769Y-41.622
T12
X66.5Y-42.6
X66.5Y-52.52
X69.9Y-42.6
X69.9Y-52.52
T13
X50.6Y-46.69
X57.8Y-46.69
T14
X39.509Y-34.952
X39.509Y-109.952
X39.509Y-214.952
X134.509Y-34.952
X134.509Y-214.952
X229.509Y-34.952
X229.509Y-109.952
X229.509Y-214.952
T6
G00X47.45Y-40.14
M15
G01X47.45Y-41.24
M16
G05
G00X60.95Y-40.14
M15
G01X60.95Y-41.24
M16
G05
M30
