G04 #@! TF.GenerationSoftware,KiCad,Pcbnew,9.0.3-rc1*
G04 #@! TF.CreationDate,2025-10-23T15:45:58+02:00*
G04 #@! TF.ProjectId,Nerd8,4e657264-382e-46b6-9963-61645f706362,rev?*
G04 #@! TF.SameCoordinates,Original*
G04 #@! TF.FileFunction,Paste,Bot*
G04 #@! TF.FilePolarity,Positive*
%FSLAX46Y46*%
G04 Gerber Fmt 4.6, Leading zero omitted, Abs format (unit mm)*
G04 Created by KiCad (PCBNEW 9.0.3-rc1) date 2025-10-23 15:45:58*
%MOMM*%
%LPD*%
G01*
G04 APERTURE LIST*
G04 Aperture macros list*
%AMRoundRect*
0 Rectangle with rounded corners*
0 $1 Rounding radius*
0 $2 $3 $4 $5 $6 $7 $8 $9 X,Y pos of 4 corners*
0 Add a 4 corners polygon primitive as box body*
4,1,4,$2,$3,$4,$5,$6,$7,$8,$9,$2,$3,0*
0 Add four circle primitives for the rounded corners*
1,1,$1+$1,$2,$3*
1,1,$1+$1,$4,$5*
1,1,$1+$1,$6,$7*
1,1,$1+$1,$8,$9*
0 Add four rect primitives between the rounded corners*
20,1,$1+$1,$2,$3,$4,$5,0*
20,1,$1+$1,$4,$5,$6,$7,0*
20,1,$1+$1,$6,$7,$8,$9,0*
20,1,$1+$1,$8,$9,$2,$3,0*%
G04 Aperture macros list end*
%ADD10RoundRect,0.250000X0.325000X0.650000X-0.325000X0.650000X-0.325000X-0.650000X0.325000X-0.650000X0*%
%ADD11RoundRect,0.250000X-0.325000X-0.650000X0.325000X-0.650000X0.325000X0.650000X-0.325000X0.650000X0*%
%ADD12RoundRect,0.250000X-0.250000X-0.475000X0.250000X-0.475000X0.250000X0.475000X-0.250000X0.475000X0*%
%ADD13RoundRect,0.250000X0.250000X0.475000X-0.250000X0.475000X-0.250000X-0.475000X0.250000X-0.475000X0*%
%ADD14RoundRect,0.250000X0.475000X-0.250000X0.475000X0.250000X-0.475000X0.250000X-0.475000X-0.250000X0*%
%ADD15RoundRect,0.250000X-0.450000X0.262500X-0.450000X-0.262500X0.450000X-0.262500X0.450000X0.262500X0*%
%ADD16RoundRect,0.250000X0.450000X-0.262500X0.450000X0.262500X-0.450000X0.262500X-0.450000X-0.262500X0*%
%ADD17RoundRect,0.225000X-0.225000X-0.250000X0.225000X-0.250000X0.225000X0.250000X-0.225000X0.250000X0*%
%ADD18RoundRect,0.225000X-0.250000X0.225000X-0.250000X-0.225000X0.250000X-0.225000X0.250000X0.225000X0*%
%ADD19RoundRect,0.250000X0.262500X0.450000X-0.262500X0.450000X-0.262500X-0.450000X0.262500X-0.450000X0*%
%ADD20RoundRect,0.250000X-0.262500X-0.450000X0.262500X-0.450000X0.262500X0.450000X-0.262500X0.450000X0*%
%ADD21RoundRect,0.250000X-0.475000X0.250000X-0.475000X-0.250000X0.475000X-0.250000X0.475000X0.250000X0*%
%ADD22RoundRect,0.225000X0.250000X-0.225000X0.250000X0.225000X-0.250000X0.225000X-0.250000X-0.225000X0*%
%ADD23RoundRect,0.250000X-0.650000X0.325000X-0.650000X-0.325000X0.650000X-0.325000X0.650000X0.325000X0*%
%ADD24RoundRect,0.250000X0.650000X-0.325000X0.650000X0.325000X-0.650000X0.325000X-0.650000X-0.325000X0*%
%ADD25R,1.000000X0.900000*%
%ADD26RoundRect,0.050000X0.100000X-0.285000X0.100000X0.285000X-0.100000X0.285000X-0.100000X-0.285000X0*%
%ADD27RoundRect,0.225000X0.225000X0.250000X-0.225000X0.250000X-0.225000X-0.250000X0.225000X-0.250000X0*%
G04 APERTURE END LIST*
D10*
X104950000Y-109750000D03*
X102000000Y-109750000D03*
D11*
X57300000Y-102750000D03*
X60250000Y-102750000D03*
D10*
X156500000Y-103250000D03*
X153550000Y-103250000D03*
D12*
X86950000Y-146540000D03*
X88850000Y-146540000D03*
D13*
X182010000Y-178400000D03*
X180110000Y-178400000D03*
D11*
X108800000Y-107500000D03*
X111750000Y-107500000D03*
X108850000Y-109750000D03*
X111800000Y-109750000D03*
D14*
X122100000Y-85900000D03*
X122100000Y-84000000D03*
D15*
X170127500Y-54187500D03*
X170127500Y-56012500D03*
D12*
X101150000Y-146530000D03*
X103050000Y-146530000D03*
D13*
X167940000Y-157350000D03*
X166040000Y-157350000D03*
D12*
X68900000Y-144500000D03*
X70800000Y-144500000D03*
D16*
X187782200Y-172260900D03*
X187782200Y-170435900D03*
D17*
X120859218Y-45831644D03*
X122409218Y-45831644D03*
D12*
X81150000Y-146530000D03*
X83050000Y-146530000D03*
D11*
X134550000Y-103250000D03*
X137500000Y-103250000D03*
D13*
X89020000Y-168370000D03*
X87120000Y-168370000D03*
D18*
X97100000Y-150100000D03*
X97100000Y-151650000D03*
D13*
X180100000Y-180400000D03*
X178200000Y-180400000D03*
D12*
X81150000Y-148530000D03*
X83050000Y-148530000D03*
D13*
X167940000Y-176400000D03*
X166040000Y-176400000D03*
D11*
X160300000Y-107850000D03*
X163250000Y-107850000D03*
D13*
X68940000Y-174400000D03*
X67040000Y-174400000D03*
X103000000Y-178400000D03*
X101100000Y-178400000D03*
D19*
X81025000Y-36300000D03*
X79200000Y-36300000D03*
D16*
X68782200Y-172260900D03*
X68782200Y-170435900D03*
D14*
X91960000Y-160870000D03*
X91960000Y-158970000D03*
D11*
X134500000Y-110000000D03*
X137450000Y-110000000D03*
D20*
X81077500Y-170400000D03*
X82902500Y-170400000D03*
D21*
X98010000Y-163980000D03*
X98010000Y-165880000D03*
D14*
X98010000Y-160880000D03*
X98010000Y-158980000D03*
D22*
X118919218Y-49071644D03*
X118919218Y-47521644D03*
D11*
X57300000Y-109500000D03*
X60250000Y-109500000D03*
D10*
X104950000Y-103000000D03*
X102000000Y-103000000D03*
D11*
X57300000Y-105000000D03*
X60250000Y-105000000D03*
D23*
X94800000Y-149550000D03*
X94800000Y-152500000D03*
D22*
X171600000Y-174850000D03*
X171600000Y-173300000D03*
D13*
X187950000Y-156540000D03*
X186050000Y-156540000D03*
D10*
X105000000Y-107500000D03*
X102050000Y-107500000D03*
D14*
X197010000Y-160880000D03*
X197010000Y-158980000D03*
D10*
X79200000Y-105000000D03*
X76250000Y-105000000D03*
D13*
X68940000Y-176400000D03*
X67040000Y-176400000D03*
D18*
X176100000Y-150050000D03*
X176100000Y-151600000D03*
D13*
X102940000Y-176400000D03*
X101040000Y-176400000D03*
D12*
X178200000Y-144600000D03*
X180100000Y-144600000D03*
D18*
X92700000Y-150050000D03*
X92700000Y-151600000D03*
D19*
X167922500Y-155360000D03*
X166097500Y-155360000D03*
D24*
X193900000Y-175250000D03*
X193900000Y-172300000D03*
D21*
X71960000Y-163970000D03*
X71960000Y-165870000D03*
D10*
X182750000Y-110250000D03*
X179800000Y-110250000D03*
D11*
X108800000Y-105250000D03*
X111750000Y-105250000D03*
D10*
X130750000Y-107750000D03*
X127800000Y-107750000D03*
D12*
X66950000Y-150540000D03*
X68850000Y-150540000D03*
D11*
X160300000Y-103250000D03*
X163250000Y-103250000D03*
D13*
X187940000Y-176400000D03*
X186040000Y-176400000D03*
X188020000Y-168370000D03*
X186120000Y-168370000D03*
D11*
X83000000Y-109500000D03*
X85950000Y-109500000D03*
D10*
X79200000Y-109500000D03*
X76250000Y-109500000D03*
D12*
X200040000Y-168400000D03*
X201940000Y-168400000D03*
X79200000Y-144500000D03*
X81100000Y-144500000D03*
X200050000Y-156540000D03*
X201950000Y-156540000D03*
D21*
X78010000Y-163980000D03*
X78010000Y-165880000D03*
D12*
X81150000Y-150530000D03*
X83050000Y-150530000D03*
D10*
X79250000Y-107250000D03*
X76300000Y-107250000D03*
D12*
X187900000Y-144600000D03*
X189800000Y-144600000D03*
D11*
X160300000Y-110050000D03*
X163250000Y-110050000D03*
D21*
X177010000Y-163980000D03*
X177010000Y-165880000D03*
D12*
X185950000Y-148540000D03*
X187850000Y-148540000D03*
D13*
X88950000Y-156540000D03*
X87050000Y-156540000D03*
X88940000Y-174400000D03*
X87040000Y-174400000D03*
X82940000Y-174400000D03*
X81040000Y-174400000D03*
D12*
X165950000Y-150540000D03*
X167850000Y-150540000D03*
X101150000Y-148530000D03*
X103050000Y-148530000D03*
X180040000Y-168400000D03*
X181940000Y-168400000D03*
D13*
X90800000Y-180400000D03*
X88900000Y-180400000D03*
X168020000Y-168370000D03*
X166120000Y-168370000D03*
D10*
X53700000Y-105000000D03*
X50750000Y-105000000D03*
D13*
X200100000Y-180400000D03*
X198200000Y-180400000D03*
X181940000Y-176400000D03*
X180040000Y-176400000D03*
X102940000Y-174400000D03*
X101040000Y-174400000D03*
D22*
X77000000Y-174950000D03*
X77000000Y-173400000D03*
D16*
X88782200Y-172260900D03*
X88782200Y-170435900D03*
D12*
X180150000Y-150540000D03*
X182050000Y-150540000D03*
D24*
X95000000Y-175450000D03*
X95000000Y-172500000D03*
D11*
X57300000Y-107250000D03*
X60250000Y-107250000D03*
D22*
X92700000Y-174850000D03*
X92700000Y-173300000D03*
D18*
X72800000Y-150100000D03*
X72800000Y-151650000D03*
X171900000Y-150050000D03*
X171900000Y-151600000D03*
D13*
X81000000Y-180400000D03*
X79100000Y-180400000D03*
D10*
X53750000Y-109600005D03*
X50800000Y-109600005D03*
D14*
X78010000Y-160880000D03*
X78010000Y-158980000D03*
D10*
X182750000Y-103500000D03*
X179800000Y-103500000D03*
D20*
X101077500Y-170400000D03*
X102902500Y-170400000D03*
D10*
X53750000Y-107250000D03*
X50800000Y-107250000D03*
D13*
X88940000Y-178400000D03*
X87040000Y-178400000D03*
D11*
X108800000Y-103000000D03*
X111750000Y-103000000D03*
X83000000Y-105000000D03*
X85950000Y-105000000D03*
D23*
X74900000Y-149800000D03*
X74900000Y-152750000D03*
D12*
X66950000Y-146540000D03*
X68850000Y-146540000D03*
D19*
X88912500Y-154540000D03*
X87087500Y-154540000D03*
D25*
X161655000Y-152005000D03*
X163805000Y-152005000D03*
X163805000Y-153555000D03*
X161655000Y-153555000D03*
D13*
X85950000Y-162500000D03*
X84050000Y-162500000D03*
D12*
X198200000Y-144600000D03*
X200100000Y-144600000D03*
D13*
X69020000Y-168370000D03*
X67120000Y-168370000D03*
D21*
X170960000Y-163970000D03*
X170960000Y-165870000D03*
D24*
X173900000Y-175250000D03*
X173900000Y-172300000D03*
D10*
X79200000Y-102750000D03*
X76250000Y-102750000D03*
D19*
X122501718Y-49591644D03*
X120676718Y-49591644D03*
D15*
X180260000Y-152917500D03*
X180260000Y-154742500D03*
D13*
X82940000Y-176400000D03*
X81040000Y-176400000D03*
X70800000Y-180400000D03*
X68900000Y-180400000D03*
D12*
X101040000Y-168400000D03*
X102940000Y-168400000D03*
D22*
X97100000Y-174850000D03*
X97100000Y-173300000D03*
D15*
X101260000Y-152917500D03*
X101260000Y-154742500D03*
D19*
X68912500Y-154540000D03*
X67087500Y-154540000D03*
D12*
X165950000Y-146540000D03*
X167850000Y-146540000D03*
D11*
X186600000Y-108000000D03*
X189550000Y-108000000D03*
D21*
X190960000Y-163970000D03*
X190960000Y-165870000D03*
D12*
X183050000Y-162500000D03*
X184950000Y-162500000D03*
D10*
X156500000Y-107750000D03*
X153550000Y-107750000D03*
D12*
X165950000Y-148540000D03*
X167850000Y-148540000D03*
D23*
X174000000Y-149700000D03*
X174000000Y-152650000D03*
D13*
X68950000Y-156540000D03*
X67050000Y-156540000D03*
D10*
X130750000Y-105500000D03*
X127800000Y-105500000D03*
D12*
X161980000Y-150150000D03*
X163880000Y-150150000D03*
D15*
X200260000Y-152917500D03*
X200260000Y-154742500D03*
D10*
X156450000Y-110000000D03*
X153500000Y-110000000D03*
D12*
X185950000Y-150540000D03*
X187850000Y-150540000D03*
D23*
X194000000Y-149650000D03*
X194000000Y-152600000D03*
D12*
X99300000Y-144500000D03*
X101200000Y-144500000D03*
X185950000Y-146540000D03*
X187850000Y-146540000D03*
D13*
X101100000Y-180400000D03*
X99200000Y-180400000D03*
X201940000Y-176400000D03*
X200040000Y-176400000D03*
D12*
X200150000Y-148540000D03*
X202050000Y-148540000D03*
D21*
X91960000Y-163970000D03*
X91960000Y-165870000D03*
D13*
X169800000Y-180400000D03*
X167900000Y-180400000D03*
D11*
X134550000Y-105500000D03*
X137500000Y-105500000D03*
D13*
X189800000Y-180400000D03*
X187900000Y-180400000D03*
D11*
X186550000Y-103500000D03*
X189500000Y-103500000D03*
D12*
X200150000Y-146530000D03*
X202050000Y-146530000D03*
D10*
X130750000Y-110000000D03*
X127800000Y-110000000D03*
D14*
X190960000Y-160870000D03*
X190960000Y-158970000D03*
D11*
X83000000Y-102750000D03*
X85950000Y-102750000D03*
D14*
X71960000Y-160870000D03*
X71960000Y-158970000D03*
D10*
X53700000Y-102750000D03*
X50750000Y-102750000D03*
D11*
X134500000Y-107750000D03*
X137450000Y-107750000D03*
X186550000Y-105750000D03*
X189500000Y-105750000D03*
D12*
X81050000Y-156540000D03*
X82950000Y-156540000D03*
D20*
X180077500Y-170400000D03*
X181902500Y-170400000D03*
D12*
X180050000Y-156540000D03*
X181950000Y-156540000D03*
X101050000Y-156540000D03*
X102950000Y-156540000D03*
D19*
X122501718Y-47551644D03*
X120676718Y-47551644D03*
D12*
X180150000Y-146530000D03*
X182050000Y-146530000D03*
D14*
X170960000Y-160870000D03*
X170960000Y-158970000D03*
D13*
X167940000Y-174400000D03*
X166040000Y-174400000D03*
D12*
X88900000Y-144500000D03*
X90800000Y-144500000D03*
X200150000Y-150540000D03*
X202050000Y-150540000D03*
D13*
X88940000Y-176400000D03*
X87040000Y-176400000D03*
D10*
X182750000Y-105750000D03*
X179800000Y-105750000D03*
D13*
X201940000Y-174400000D03*
X200040000Y-174400000D03*
X82940000Y-178400000D03*
X81040000Y-178400000D03*
X187940000Y-178400000D03*
X186040000Y-178400000D03*
D22*
X82700000Y-36350000D03*
X82700000Y-34800000D03*
D18*
X77000000Y-150100000D03*
X77000000Y-151650000D03*
D14*
X177010000Y-160880000D03*
X177010000Y-158980000D03*
D21*
X197010000Y-163980000D03*
X197010000Y-165880000D03*
D18*
X196100000Y-150050000D03*
X196100000Y-151600000D03*
D11*
X83050000Y-107250000D03*
X86000000Y-107250000D03*
D18*
X191800000Y-150050000D03*
X191800000Y-151600000D03*
D12*
X167900000Y-144500000D03*
X169800000Y-144500000D03*
D22*
X72800000Y-174950000D03*
X72800000Y-173400000D03*
D10*
X104950000Y-105250000D03*
X102000000Y-105250000D03*
D16*
X167782200Y-172260900D03*
X167782200Y-170435900D03*
D26*
X119520000Y-84390000D03*
X120020000Y-84390000D03*
X120520000Y-84390000D03*
X120520000Y-85870000D03*
X120020000Y-85870000D03*
X119520000Y-85870000D03*
D22*
X196000000Y-174950000D03*
X196000000Y-173400000D03*
D27*
X122334218Y-51301644D03*
X120784218Y-51301644D03*
D13*
X181940000Y-174400000D03*
X180040000Y-174400000D03*
D15*
X172657500Y-54197500D03*
X172657500Y-56022500D03*
D12*
X86950000Y-148540000D03*
X88850000Y-148540000D03*
D16*
X163960000Y-157052500D03*
X163960000Y-155227500D03*
D13*
X68940000Y-178400000D03*
X67040000Y-178400000D03*
X201940000Y-178400000D03*
X200040000Y-178400000D03*
D15*
X118700000Y-112300000D03*
X118700000Y-114125000D03*
D13*
X167940000Y-178400000D03*
X166040000Y-178400000D03*
D10*
X156500000Y-105500000D03*
X153550000Y-105500000D03*
D22*
X176100000Y-174850000D03*
X176100000Y-173300000D03*
D12*
X66950000Y-148540000D03*
X68850000Y-148540000D03*
X81040000Y-168400000D03*
X82940000Y-168400000D03*
D22*
X191900000Y-174900000D03*
X191900000Y-173350000D03*
D11*
X160300000Y-105500000D03*
X163250000Y-105500000D03*
D10*
X130750000Y-103250000D03*
X127800000Y-103250000D03*
D12*
X180150000Y-148540000D03*
X182050000Y-148540000D03*
D15*
X81260000Y-152917500D03*
X81260000Y-154742500D03*
D13*
X187940000Y-174400000D03*
X186040000Y-174400000D03*
D10*
X182750000Y-108000000D03*
X179800000Y-108000000D03*
D24*
X75100000Y-175100000D03*
X75100000Y-172150000D03*
D11*
X186550000Y-110250000D03*
X189500000Y-110250000D03*
D12*
X86950000Y-150540000D03*
X88850000Y-150540000D03*
D15*
X120700000Y-112300000D03*
X120700000Y-114125000D03*
D20*
X200077500Y-170400000D03*
X201902500Y-170400000D03*
D19*
X187912500Y-154540000D03*
X186087500Y-154540000D03*
D12*
X101150000Y-150530000D03*
X103050000Y-150530000D03*
M02*
